<?xml version="1.0" encoding="UTF-8"?>
<!DOCTYPE svg PUBLIC "-//W3C//DTD SVG 1.1//EN" "http://www.w3.org/Graphics/SVG/1.1/DTD/svg11.dtd">
<!-- Creator: CorelDRAW -->
<svg xmlns="http://www.w3.org/2000/svg" xml:space="preserve" width="387.449mm" height="100.338mm" version="1.1" style="shape-rendering:geometricPrecision; text-rendering:geometricPrecision; image-rendering:optimizeQuality; fill-rule:evenodd; clip-rule:evenodd"
viewBox="0 0 72913.26 18882.35"
 xmlns:xlink="http://www.w3.org/1999/xlink"
 xmlns:xodm="http://www.corel.com/coreldraw/odm/2003">
 <defs>
  <style type="text/css">
   <![CDATA[
    .fil3 {fill:#FFFFFF;fill-rule:nonzero}
    .fil0 {fill:#FFFFFF;fill-rule:nonzero}
    .fil1 {fill:#FFFFFF;fill-rule:nonzero}
    .fil2 {fill:#FFFFFF;fill-rule:nonzero}
   ]]>
  </style>
 </defs>
 <g id="Camada_x0020_1">
  <metadata id="CorelCorpID_0Corel-Layer"/>
  <g id="_2538560740928">
   <path class="fil0" d="M20749.76 507.86c-68.37,173.26 -195.17,323.31 -379.74,448.77 -0.66,0.68 -7.96,8.64 -20.57,24.58 -8.64,10.61 -11.29,20.57 -8.64,30.52 3.99,13.29 18.59,20.59 31.2,15.28 490.61,-188.55 1033.68,-271.54 1558.14,-312.03 362.49,-28.55 1084.13,62.4 1270.68,459.4 166.62,355.84 37.17,756.84 -168.64,1076.17 -348.54,540.4 -541.06,832.51 -578.9,876.99 -16.6,19.25 -15.94,47.8 1.99,65.72 17.92,17.93 51.77,30.54 101.56,37.84 40.5,5.98 48.48,61.09 11.29,78.34 -57.75,25.89 -203.15,108.21 -434.85,246.96 -374.44,223.06 -934.09,246.3 -1283.29,-13.27 -50.45,-38.52 -116.19,-51.13 -177.91,-35.19l-333.28 84.31c-10.61,2.65 -21.91,-3.99 -24.56,-14.6l-5.31 -20.59c-2.65,-10.61 3.31,-21.91 13.94,-24.56l453.42 -132.11c29.88,-9.3 56.44,-27.89 75.69,-53.11 317.34,-431.53 971.93,-436.18 1424.69,-235.69 29.21,12.61 63.06,3.31 81.65,-21.91 353.85,-472.03 1399.48,-1747.34 428.2,-2170.24 -551.01,-240.33 -1404.77,-112.2 -1906.66,41.82 -208.47,63.74 -402.99,125.48 -583.57,184.57 -446.12,146.71 -766.77,337.91 -1246.1,568.27 -26.55,12.63 -58.41,-1.32 -67.05,-29.87l-5.97 -19.93c-5.33,-16.58 2.65,-34.51 18.57,-42.47 310.04,-156.03 553.03,-269.54 730.28,-340.58 231.7,-92.95 410.29,-197.16 536.41,-312.02 215.78,-195.85 371.78,-359.18 466.72,-489.95 11.95,-16.6 10.61,-39.84 -2.67,-55.1 -331.27,-384.39 347.88,-608.13 383.08,-227.05 11.95,135.42 -98.25,282.81 -249.63,260.9 -27.21,-4.65 -48.46,-3.33 -63.72,2.65 -21.25,8.62 -37.84,25.89 -46.48,47.14zm199.84 -417.72c-75.69,-44.36 -175.28,-15.81 -222.4,64.19 -47.14,80 -23.24,180.9 52.45,225.52 75.67,44.36 175.26,15.81 222.4,-64.27 47.12,-79.92 23.22,-180.85 -52.45,-225.45zm882.96 3269.76l-861.05 79c-19.25,1.34 -27.21,24.56 -13.94,38.5 116.19,117.5 519.83,142.08 641.98,140.09 257.59,-2.65 578.24,-211.13 730.26,-298.75 25.24,-14.6 25.24,-51.13 -0.66,-64.4 -426.89,-227.05 -845.79,-221.74 -1256.74,15.26 -21.91,12.61 -37.17,25.24 -46.46,39.18 -11.95,17.26 3.97,40.48 24.56,35.17 263.56,-69.05 524.46,-88.3 782.73,-58.41 19.25,1.99 33.18,18.59 33.18,37.84 0,18.57 -14.6,34.51 -33.85,36.51z"/>
   <path class="fil1" d="M6203.39 10976c-762.14,91.61 -1496.39,92.27 -2203.43,2.65 -353.19,-44.49 -687.79,-221.74 -918.83,-335.28 -349.86,-171.27 -574.91,-352.51 -813.91,-642.62 -175.94,-213.12 -280.16,-513.85 -411.6,-752.19 -172.62,-310.7 -248.97,-840.48 -247.64,-1100.05 3.31,-726.97 -43.15,-1335.08 -17.93,-2008.92 14.62,-392.35 -100.91,-808.61 -212.43,-1305.2 -56.44,-253.6 -106.89,-440.15 -150.04,-560.33 -183.24,-509.86 -344.55,-881.62 -483.3,-1115.99 -325.98,-547.02 -474.69,-758.81 -671.87,-1236.15 -199.16,-482.65 26.55,-927.45 505.89,-1113.34 404.3,-156.67 751.53,-109.53 1238.14,-51.11 397,48.46 771.44,102.24 1155.83,258.91 760.81,310.04 1298.55,564.98 1612.58,764.8 292.11,185.89 731.6,494.6 1319.12,926.79 133.44,98.93 314.03,256.93 541.08,474.69 272.19,260.9 651.26,539.74 908.19,871.01 190.54,244.98 395.01,477.34 614.75,696.43 107.55,107.55 264.23,305.37 359.16,456.75 207.14,328.61 464.73,604.8 652.6,932.09 225.73,391.69 422.24,729.6 588.88,1014.41 204.47,349.2 354.51,750.19 546.37,1141.89 204.48,416.91 281.49,742.89 468.04,1261.39 100.91,279.5 173.94,596.82 218.43,950.67 63.06,503.89 65.72,1024.38 7.3,1562.13 -126.8,1169.1 -452.78,2270.49 -977.24,3304.82 -308.7,608.79 -728.95,1202.29 -1260.73,1780.54 -339.9,369.11 -770.76,667.2 -1131.25,952 -63.06,49.79 -323.98,187.89 -782.05,415.59 -398.34,197.18 -840.48,274.85 -1189.03,358.5 -40.5,9.96 -73.69,-32.54 -54.44,-69.05 290.79,-562.31 -47.8,-1337.73 -408.95,-1773.24 -71.02,-85.64 -222.4,-243.65 -454.1,-474.67 -384.37,-383.08 -685.12,-835.84 -902.21,-1358.98 -56.44,-136.1 -96.26,-272.19 -119.5,-408.95 -33.85,-200.5 -88.96,-393.69 -83.65,-565.64 13.94,-461.4 81.65,-831.85 201.81,-1112 201.15,-468.7 541.74,-910.85 1020.39,-1326.44 179.93,-156.01 426.23,-306.05 739.58,-450.11 308.7,-141.4 576.91,-251.63 804.62,-330.63 8.64,-3.31 13.94,-11.95 11.29,-21.25 -1.99,-9.28 -10.61,-15.26 -19.91,-13.93zm4177.83 -1514.99c3.31,-2.65 4.65,-7.3 3.31,-11.29 -388.36,-1066.86 -848.44,-2022.19 -1380.21,-2866.65 -356.5,-566.29 -826.54,-1196.99 -1408.77,-1890.76 -292.76,-349.2 -624.05,-631.35 -938.74,-946.02 -185.21,-185.23 -452.76,-412.28 -801.96,-680.49 -550.36,-423.55 -776.09,-615.43 -1235.49,-882.3 -608.79,-353.85 -1250.75,-747.54 -1950.49,-924.13 -379.09,-94.94 -602.8,-150.04 -671.19,-165.3 -159.34,-35.85 -264.89,-52.45 -316.66,-50.45 -482.65,20.57 -786.72,48.46 -913.52,83.65 -587.54,164.65 -365.8,740.22 -126.8,1094.75 147.39,218.41 275.53,456.75 383.73,714.34 20.57,49.79 71.7,79.66 125.46,73.69 156.03,-16.6 315.35,-15.28 476.68,3.97 906.2,110.88 1778.54,332.6 2618.35,665.23 266.89,105.55 510.53,222.4 730.94,350.52 410.29,237.68 643.98,373.78 701.06,407.63 472.03,280.81 763.48,470.7 874.34,568.95 193.19,170.61 397,335.92 612.1,495.91 375.1,279.5 797.33,701.73 1013.77,930.1 96.26,100.93 349.2,393.03 760.15,875.68 382.4,449.45 588.2,799.31 1025.04,1439.96 70.36,102.9 195.17,342.58 373.76,720.33 5.31,10.61 18.59,13.94 27.89,6.64l17.26 -13.94zm-5427.26 -3448.88c-151.36,-265.55 -240.33,-537.09 -267.55,-813.93 -39.84,-408.95 -55.1,-661.24 81.65,-1029.01 7.98,-21.25 -1.99,-45.15 -22.56,-53.78 -309.38,-138.75 -697.09,-292.76 -1163.79,-463.39 -428.88,-156.67 -830.53,-215.76 -1262.72,-336.59 -72.36,-20.57 -146.71,-32.52 -221.06,-37.17l-852.43 -49.14c-33.85,-1.99 -59.07,31.2 -47.8,63.74 114.85,318 304.73,647.95 394.35,995.83 133.44,521.15 219.09,1031.01 258.25,1530.91 1.34,18.59 19.25,31.86 37.84,28.55 242.33,-45.15 493.94,-71.04 754.84,-77.01 786.04,-17.26 1546.85,75.67 2281.78,278.16 21.91,5.98 40.5,-17.26 29.21,-37.17zm5591.91 4385.62c-80.34,-373.78 -195.85,-709.69 -346.55,-1007.12 -53.78,-106.21 -193.85,-355.84 -420.24,-748.2 -152.7,-264.89 -313.35,-500.56 -482.65,-708.36 -254.26,-312.03 -454.76,-623.39 -733.59,-923.48 -419.58,-450.77 -892.25,-900.22 -1417.39,-1347.01 -199.84,-169.95 -475.34,-372.44 -827.2,-608.13 -588.2,-393.67 -934.09,-651.26 -1430.68,-878.31 -11.95,-5.31 -25.22,0.66 -29.21,12.61 -145.39,437.5 -138.75,858.4 21.25,1261.39 183.9,462.74 345.21,789.35 483.96,978.56 357.84,487.97 758.17,795.34 1277.98,1268.69 189.2,172.61 456.09,348.54 620.08,447.45 566.95,342.58 1167.76,762.82 1803.76,1089.44 276.18,141.4 594.84,468.7 917.49,698.4 245.64,175.28 389.04,281.49 533.76,477.34 10.63,13.94 33.2,3.99 29.23,-13.27zm-2846.08 -1771.24c6.64,0.66 13.27,-3.33 15.26,-9.97 1.34,-6.62 -1.99,-13.27 -7.96,-15.92 -42.49,-18.59 -101.58,-51.13 -176.6,-96.94 -189.2,-116.17 -605.46,-406.3 -1248.76,-869.69 -161.33,-116.17 -312.69,-257.59 -454.1,-425.55 -355.19,-420.24 -595.52,-734.91 -720.99,-945.36 -52.45,-88.3 -122.15,-133.44 -209.13,-134.1 -27.21,-0.68 -67.71,-7.32 -121.48,-21.25 -551.69,-142.74 -1125.29,-216.43 -1720.79,-221.08 -369.13,-2.65 -728.29,69.05 -1112.02,81 -37.17,1.34 -64.4,34.51 -58.41,71.04 29.87,175.92 43.81,326.62 41.82,450.77 -14.6,1007.78 -75.67,1886.77 284.8,2747.82 15.28,37.19 57.77,55.1 94.94,39.84 1744.03,-705.72 3541.83,-922.8 5393.41,-650.6zm2786.33 2099.2c29.21,9.3 51.11,-26.55 29.87,-48.46l-665.87 -683.14c-11.29,-11.29 -22.58,-20.59 -35.19,-29.21 -37.84,-25.24 -98.91,-65.08 -182.58,-120.18 -400.97,-264.89 -802.62,-534.42 -1204.95,-807.95 -45.8,-31.2 -195.85,-111.52 -450.77,-242.31 -53.78,-27.23 -112.88,-41.83 -173.28,-41.83 -22.56,0.68 -233.01,-26.55 -630.69,-81 -193.85,-26.55 -402.97,-43.81 -627.36,-51.11 -1061.55,-35.85 -2103.19,88.96 -3124.24,374.44 -356.52,99.57 -724.3,219.07 -1104.04,359.16 -29.23,10.61 -40.5,45.8 -23.24,71.7 279.5,404.96 721.64,898.9 1199.64,1042.96 203.15,61.09 504.55,141.42 904.86,240.99 340.58,84.99 815.27,49.79 1050.93,57.75 294.1,9.97 537.09,1.99 727.63,-23.9 345.87,-46.46 717.65,-28.55 1103.36,-73.02 838.49,-95.6 1723.44,-114.19 2654.88,-55.1 182.58,11.27 355.19,49.12 551.03,110.2zm-5427.26 5874.72c14.6,-77.68 57.1,-266.21 127.46,-564.96 264.89,-1122.63 783.39,-2123.12 1544.87,-3024.01 161.31,-191.2 336.57,-367.79 524.46,-529.77 311.36,-267.55 502.56,-426.23 574.26,-476.02 395.03,-274.17 886.29,-537.07 1474.49,-790.01 327.95,-140.75 705.72,-217.75 1062.88,-318 13.29,-3.99 21.25,-16.6 19.25,-29.88 -1.99,-13.27 -13.94,-23.22 -27.21,-23.22 -343.24,1.98 -834.52,-11.29 -1473.83,-39.18 -256.26,-11.29 -667.86,20.59 -1234.15,94.28 -339.25,44.47 -642.64,154.01 -960.64,211.11 -286.8,51.11 -703.73,199.84 -909.53,307.39 -490.61,255.6 -942.05,584.21 -1355.65,985.86 -289.45,281.49 -482.65,781.39 -583.55,1142.54 -97.59,347.88 -101.58,742.89 -11.95,1184.38 17.92,88.3 110.2,335.26 278.16,740.22 9.3,22.58 21.91,44.49 37.19,63.74l853.75 1080.14c17.92,22.56 54.44,13.94 59.75,-14.6zm5507.58 -5599.87c-12.61,-8.64 -25.89,-10.63 -39.82,-7.3 -189.22,50.45 -410.29,84.31 -598.83,156.01 -361.15,137.43 -711.69,233.03 -1001.14,385.71 -517.16,272.87 -950.69,545.07 -1301.88,816.58 -1247.42,965.95 -2102.51,2511.48 -2431.14,4051.03 -25.89,121.49 -39.16,216.43 -39.16,284.8 0.66,55.1 19.91,108.23 55.76,150.04 213.78,254.26 402.99,472.03 505.89,738.24 98.91,254.26 138.09,532.44 117.5,833.18 -2.65,37.83 33.85,67.05 70.36,56.42 355.19,-102.24 590.87,-171.27 707.04,-207.12 568.95,-174.62 1025.7,-723.64 1263.38,-1242.13 203.81,-442.81 342.56,-785.38 416.91,-1029.03 231.04,-754.16 402.33,-1305.2 513.85,-1653.06 110.2,-343.24 258.93,-645.97 375.1,-942.73 96.28,-246.3 203.15,-476 321.33,-687.79 373.1,-669.85 680.47,-1175.74 1074.16,-1644.44 18.59,-21.91 15.28,-41.82 -9.3,-58.41zm-3062.49 6816.77c321.31,-139.41 578.24,-433.51 830.51,-664.55 179.93,-165.3 319.99,-308.7 420.24,-430.2 501.24,-608.79 912.84,-1273.99 1236.15,-1994.98 52.45,-118.16 112.88,-283.47 180.59,-496.57 124.81,-390.38 284.14,-851.12 367.79,-1270.02 108.21,-542.39 161.99,-1127.94 161.31,-1756.64 0,-25.89 -30.52,-40.5 -50.45,-23.9 -37.83,31.2 -62.4,55.1 -73.69,72.36 -237.66,363.82 -454.76,646.63 -664.55,1012.43 -329.95,572.94 -599.47,1137.24 -809.26,1694.24 -138.75,365.8 -329.29,920.8 -571.6,1663.69 -147.39,452.1 -361.83,1017.08 -512.53,1335.74 -140.75,297.41 -321.99,570.28 -543.05,818.56 -17.93,19.93 3.99,50.47 28.55,39.84z"/>
   <path class="fil0" d="M18362.43 4843.01c-5.97,5.33 -6.62,13.29 -1.99,19.27 3.99,6.62 12.63,8.62 19.27,4.63 254.92,-141.4 521.15,-211.11 798.65,-207.78 35.17,0.66 69.7,-9.97 98.91,-29.23 372.44,-247.62 775.43,-294.1 1210.25,-140.75 210.47,74.37 410.95,240.99 599.49,326.64 19.25,8.64 19.25,35.85 0,44.49 -571.6,252.94 -1068.19,465.37 -1650.41,92.27 -178.59,-114.17 -165.3,-233.01 -442.82,-180.57 -602.13,114.85 -1063.54,409.61 -1383.52,882.96 -4.65,6.64 -13.94,7.98 -20.59,3.33l-0.66 0c-4.65,-3.99 -5.98,-10.63 -2.65,-15.94l199.82 -299.41c1.99,-3.99 4.65,-7.3 7.98,-10.63 119.5,-131.45 276.82,-314.01 472.67,-547.7 281.49,-335.93 365.8,-770.76 402.33,-1198.3 5.97,-71.04 -24.58,-139.43 -80.34,-182.58 -405.64,-314.67 -684.46,-791.35 -673.19,-1316.49 5.98,-292.76 -7.96,-530.45 -43.15,-713.66 -5.31,-25.89 24.58,-45.15 45.8,-29.21 726.97,535.75 1115.33,1154.49 861.73,2075.96 -11.29,42.49 -16.6,86.3 -15.26,130.13 11.27,328.61 -57.1,638.65 -205.8,928.76 -12.63,23.9 17.92,47.14 38.5,29.21 246.96,-218.41 540.4,-446.78 880.31,-685.12 51.79,-35.85 125.46,-114.85 221.06,-237.68 6.64,-7.96 17.93,-9.96 26.57,-4.65l15.92 10.63c7.3,4.65 8.64,15.26 1.99,21.91l-113.51 113.53c-17.28,17.26 0,47.12 23.9,39.82l397.66 -115.51c1.99,-0.66 3.31,1.32 1.99,2.65 -149.38,122.15 -317.34,104.24 -454.76,205.8 -523.82,388.38 -935.43,716.34 -1236.17,983.21zm321.99 -1696.21c5.31,17.26 21.91,28.55 39.84,26.55 18.57,-1.99 31.86,-16.6 33.2,-34.53 37.83,-675.16 -201.17,-1202.95 -717,-1584.69 -15.28,-11.27 -36.53,-0.66 -36.53,18.59 5.98,372.44 8.64,561.65 9.3,568.29 17.93,483.96 225.73,865.04 624.73,1143.2 5.31,3.99 12.61,-1.32 10.61,-7.96l-316.01 -973.25c-3.33,-11.29 2.65,-23.24 13.94,-26.55l35.85 -9.97c23.22,-6.62 47.12,6.64 53.77,29.88l248.3 850.44zm796.66 1512.99c88.3,3.31 300.74,12.61 637.99,28.55 88.3,3.97 161.99,27.21 221.08,69.7 23.24,16.6 9.3,53.11 -19.25,50.45l-904.88 -91.61c-32.52,-3.33 -49.79,37.17 -24.56,58.41 292.11,244.31 711.01,370.45 1078.15,222.4 67.71,-27.21 209.79,-80.32 426.21,-159.32 17.93,-6.64 19.25,-31.88 1.99,-39.84 -489.95,-234.35 -869.69,-434.85 -1424.04,-176.6 -19.25,8.64 -13.27,37.19 7.3,37.84z"/>
   <path class="fil0" d="M21128.85 1663.02c-3.33,-63.74 45.8,-118.84 110.2,-122.15l113.51 -5.31c145.39,-7.3 269.54,99.57 276.18,239l0.66 9.28c7.3,139.43 -104.9,258.93 -250.27,266.23l-114.19 5.31c-64.4,3.31 -118.84,-45.8 -122.15,-109.54l-13.94 -282.81zm403.64 137.41c0,-87.62 -71.04,-158.66 -158.68,-158.66 -87.62,0 -158.66,71.04 -158.66,158.66 0,87.64 71.04,158.68 158.66,158.68 87.64,0 158.68,-71.04 158.68,-158.68z"/>
   <path class="fil2" d="M21532.49 1800.43c0,87.64 -71.04,158.68 -158.68,158.68 -87.62,0 -158.66,-71.04 -158.66,-158.68 0,-87.62 71.04,-158.66 158.66,-158.66 87.64,0 158.68,71.04 158.68,158.66z"/>
   <path class="fil0" d="M20857.97 2274.46c-215.76,286.12 -392.35,493.92 -529.77,622.05 -3.33,3.31 -6.64,6.64 -8.64,9.96l-319.99 452.78c-7.3,10.61 -21.91,13.27 -32.52,5.97l-20.59 -13.94c-1.32,-0.66 -1.32,-1.99 -0.66,-3.31 156.67,-240.33 254.26,-415.59 293.44,-525.14 19.91,-55.1 63.72,-255.6 132.11,-600.15 5.31,-26.55 -3.33,-53.77 -23.24,-71.7 -12.61,-11.29 -32.52,-23.9 -59.09,-36.51 -317.32,-149.38 19.93,-591.53 280.17,-368.45 167.3,143.4 63.06,295.42 -83.65,398.32 -9.3,6.64 -15.28,16.6 -17.28,27.89l-95.6 592.85c0,1.99 0.68,3.99 1.34,5.31l0.66 1.99c7.98,3.99 17.26,0.66 21.91,-6.64 116.19,-194.51 264.89,-363.15 446.14,-506.55 3.99,-3.31 10.61,-3.31 14.6,0.68 3.33,3.97 3.99,9.96 0.66,14.6zm-302.72 -365.14c0,-81 -65.73,-146.71 -146.73,-146.71 -80.98,0 -146.71,65.72 -146.71,146.71 0,81 65.73,146.71 146.71,146.71 81,0 146.73,-65.72 146.73,-146.71z"/>
   <path class="fil2" d="M20555.25 1909.32c0,81 -65.73,146.71 -146.73,146.71 -80.98,0 -146.71,-65.72 -146.71,-146.71 0,-81 65.73,-146.71 146.71,-146.71 81,0 146.73,65.72 146.73,146.71z"/>
   <path class="fil0" d="M12392.77 12030.9c0.68,12.61 9.97,22.56 22.58,23.9 12.61,1.34 24.56,-6.64 27.21,-19.25 92.29,-387.05 282.15,-715 569.63,-985.2 52.45,-49.79 95.6,-108.89 126.12,-173.94 84.99,-179.25 142.74,-282.81 173.28,-310.7 527.13,-476 1039.64,-495.25 1684.28,-479.33 22.56,0.68 33.85,27.23 18.57,43.83 -161.97,172.61 -277.5,300.74 -346.55,384.39 -385.05,464.05 -895.57,684.46 -1505.01,608.11 -25.89,-3.31 -51.79,4.65 -71.7,21.25 -327.3,270.86 -513.19,700.4 -620.08,1123.95 -82.97,326.64 7.3,684.48 72.38,1027.69 3.31,17.26 -7.98,34.53 -25.89,37.19l-1.99 0.66c-17.26,2.65 -34.53,-8.64 -38.5,-25.89 -132.11,-555.66 -203.15,-1035.65 -213.1,-1439.96 -17.28,-705.05 56.42,-1544.87 288.12,-2307.01 683.8,-2250.56 2052.08,-4315.24 3729.71,-5947.73 248.95,-242.33 612.1,-555.68 1089.44,-938.74 25.88,-21.25 63.72,-19.25 87.62,4.65l12.63 12.61c17.92,17.93 15.92,47.14 -3.33,62.4 -352.51,278.84 -589.54,474.69 -711.01,587.54 -1467.87,1360.3 -2635.63,2930.39 -3504.66,4710.27 -379.07,776.09 -645.95,1605.28 -801.3,2487.58 -37.19,213.76 -48.46,392.35 -33.2,535.75 0.66,8.64 7.96,15.26 16.6,15.26 8.64,0 15.94,-5.97 17.26,-14.6 55.1,-359.16 190.54,-702.39 406.96,-1029.01 16.6,-25.24 43.17,-41.16 73.04,-45.15l8.64 -0.66c21.25,-2.67 36.51,19.91 25.89,39.16 -239.68,416.25 -410.95,869.69 -515.18,1359.64 -45.8,217.75 -65.73,428.2 -58.43,631.35zm929.44 -1209.6c8.64,-0.66 18.59,-4.65 30.54,-12.61 240.33,-153.37 509.88,-278.84 809.28,-377.75 8.62,-2.67 18.59,1.32 21.91,9.96l0.66 0.66c2.65,7.3 -0.66,15.94 -7.3,19.25 -284.14,140.09 -534.42,275.51 -751.51,406.96 -73.69,44.49 -151.38,35.19 -207.14,102.9 -15.94,19.25 -2.65,48.48 21.91,49.14 439.49,16.6 900.89,-76.35 1203.63,-414.26 215.76,-240.33 329.29,-367.14 340.56,-379.74 15.94,-17.93 3.33,-45.8 -20.57,-45.15 -358.5,10.61 -723.64,8.62 -1009.12,173.26 -195.17,112.2 -350.52,248.97 -465.37,408.95 -17.93,25.24 1.32,60.43 32.52,58.43z"/>
   <path class="fil3" d="M11564.26 8004.44c25.89,0 51.77,-1.99 79,-6.64 22.56,-3.31 40.5,-20.57 45.15,-43.15 327.3,-1550.82 1044.95,-3028.64 2219.36,-4084.88 17.28,-15.92 31.2,-35.85 39.18,-58.41 9.96,-27.23 15.26,-58.43 16.6,-94.94 3.97,-141.4 138.75,-248.3 262.22,-235.69 387.72,41.18 236.35,664.57 -173.92,442.15 -21.91,-11.27 -49.14,-8.62 -67.73,7.98 -1166.44,1017.74 -1877.46,2512.8 -2187.5,4015.18 -13.94,67.71 -4.65,137.41 25.24,199.16 94.26,194.53 92.93,358.5 -3.33,490.61 -19.25,26.57 -15.26,63.74 9.96,84.99 353.19,300.74 341.24,693.1 238.34,1124.63 -161.31,678.47 -244.31,1141.87 -248.95,1389.5 -11.29,512.51 92.29,1144.54 63.06,1616.55 -32.52,512.53 -124.15,996.49 -274.85,1452.58 -7.96,23.9 -25.22,35.85 -52.45,35.85 -27.21,0 -45.13,-11.95 -53.11,-36.51 -148.71,-456.09 -239,-940.73 -269.54,-1453.24 -27.21,-472.03 78.34,-1103.38 69.05,-1615.89 -3.97,-248.3 -85.64,-711.69 -244.31,-1390.84 -101.56,-431.53 -112.2,-823.89 242.31,-1123.29 25.24,-21.25 29.88,-58.43 9.97,-84.99 -95.6,-132.77 -96.28,-296.75 -1.34,-490.61 30.54,-61.74 39.16,-131.45 25.89,-199.16 -304.73,-1503.71 -1010.44,-3001.43 -2173.57,-4023.15 -18.57,-15.92 -45.8,-19.25 -67.71,-7.96 -410.95,221.06 -560.31,-402.99 -171.95,-442.81 123.49,-11.95 257.59,94.92 260.9,236.33 1.34,36.53 6.64,68.39 16.6,95.6 7.98,21.92 21.25,41.83 39.18,58.43 1170.42,1060.23 1882.76,2540.69 2204.75,4092.18 4.65,22.58 22.58,39.84 45.15,43.81 27.21,4.65 53.11,6.64 78.34,6.64z"/>
   <path class="fil0" d="M21681.2 5127.16c-69.7,338.59 -109.54,683.8 -119.5,1035 -0.66,35.19 -41.16,53.78 -69.05,32.54 -19.91,-15.26 -28.55,-37.84 -26.55,-67.05 25.89,-347.21 73.02,-685.79 140.75,-1015.74 67.71,-329.95 158,-659.9 270.2,-989.85 9.96,-27.23 26.55,-44.49 51.11,-51.13 33.85,-8.62 63.74,25.24 50.45,57.77 -128.8,326.62 -228.37,659.22 -297.41,998.47z"/>
   <path class="fil0" d="M16922.47 6701.9c-110.2,255.6 -261.58,495.93 -454.76,720.33 -7.32,8.62 -21.25,7.96 -27.89,-0.68l-11.29 -14.6c-3.31,-3.31 -3.31,-8.62 -0.66,-12.61 96.26,-134.76 177.91,-252.94 245.64,-353.19 82.31,-122.81 144.72,-317.34 186.55,-584.21 9.3,-59.09 -3.99,-120.18 -37.84,-169.95l-239.66 -353.19c-7.98,-12.61 -25.24,-15.28 -37.19,-5.98l-499.24 394.35c-7.3,5.98 -17.92,4.65 -23.24,-3.31l-17.92 -26.55c-9.96,-13.94 -6.64,-33.2 6.64,-43.81l491.26 -388.38c16.6,-12.61 23.24,-34.51 16.6,-54.44 -167.96,-499.9 -53.77,-898.24 95.6,-1443.95 15.94,-57.75 -0.66,-128.14 16.6,-183.24 5.98,-17.92 28.55,-21.91 40.5,-7.96 403.64,472.03 687.13,1073.5 473.35,1687.59 -89.62,258.25 -170.61,501.24 -243.65,730.28 -7.3,23.9 -1.99,47.8 15.94,71.7 9.3,12.61 10.61,28.55 4.65,41.82zm-223.74 -2301.69l-178.59 788.7c-0.66,2.65 -1.32,5.31 -1.32,7.3 -13.94,355.19 106.21,700.4 359.82,1035.67 11.29,15.26 35.19,5.31 33.2,-13.29l-105.55 -936.74c-1.32,-9.3 4.65,-17.92 13.94,-20.59l1.34 0c10.61,-2.65 21.23,3.33 24.56,13.94 78.34,236.35 114.85,488.63 109.54,756.18 -0.68,19.91 27.21,25.89 34.51,7.3 69.7,-169.29 114.85,-357.84 134.1,-565.64 37.19,-389.7 -183.22,-767.45 -395.66,-1078.15 -7.98,-11.95 -26.55,-8.64 -29.88,5.31z"/>
   <path class="fil0" d="M19672.27 6215.94c5.98,21.91 31.2,31.2 49.79,18.59l530.45 -359.83c26.55,-17.92 62.4,-1.99 67.05,29.21l94.28 649.94c2.65,21.25 23.9,35.85 45.15,30.54l396.32 -100.91c33.2,-8.64 64.4,18.59 61.09,52.45l-62.4 616.75c-2.65,27.89 17.26,53.11 45.15,55.76l578.24 58.43c52.45,5.31 65.72,75.01 19.25,99.57 -125.48,65.73 -289.45,276.18 -352.53,418.25 -77.01,173.94 -122.81,294.78 -231.04,431.53 -270.86,340.56 -631.35,495.91 -1081.46,466.71 -221.06,-13.94 -440.15,-129.45 -657.25,-346.55 -15.26,-15.26 -40.5,-15.26 -56.44,0 -10.61,9.96 -15.26,27.89 -14.6,52.45 0.68,11.29 -8.62,29.21 -26.55,54.44 -294.76,413.6 -688.45,711.69 -1181.71,894.91 -18.59,6.64 -39.18,-3.31 -44.49,-22.56l-5.97 -18.59c-3.99,-13.27 3.31,-27.89 16.6,-33.2 489.27,-196.51 890.92,-493.92 1161.12,-958.65 12.63,-21.91 -1.32,-49.12 -26.55,-51.79l-127.46 -12.61c-11.29,-1.32 -22.56,-4.65 -32.54,-9.96 -497.25,-259.59 -730.26,-662.55 -699.72,-1209.6 16.6,-303.4 242.31,-699.08 309.36,-946.04 25.24,-93.6 41.83,-175.26 50.45,-245.64 3.99,-30.54 41.16,-43.81 63.08,-21.91l415.58 415.59c9.3,9.3 24.58,9.3 33.87,0l469.36 -469.36c20.59,-20.59 55.76,-11.29 64.4,16.6l130.11 445.46zm-396.32 373.1c6.62,10.61 21.91,11.95 31.2,3.31l258.25 -258.91c21.25,-21.25 29.21,-52.45 21.25,-81.65l-81 -277.5c-11.29,-38.5 -59.75,-51.13 -88.3,-22.58l-323.33 323.33c-10.61,10.61 -12.61,27.87 -3.97,41.16l185.89 272.85zm-679.17 -616.09c-7.96,-7.3 -20.57,-3.97 -23.9,5.98 -53.77,185.21 -119.5,372.44 -195.85,561.65 -99.57,245.64 -149.36,436.84 -148.71,574.26 0.66,373.76 155.35,680.49 464.05,920.14 61.09,47.14 132.79,78.34 214.44,92.95 20.59,3.99 34.53,-21.25 20.59,-37.19 -337.25,-380.4 -418.92,-817.9 -244.32,-1311.16 37.19,-105.55 120.84,-251.63 251.63,-439.49 6.64,-9.96 5.97,-23.24 -2.65,-31.86l-335.28 -335.28zm894.93 1669.02c163.97,-149.38 361.81,-272.87 593.51,-371.13 65.06,-27.87 114.85,-82.97 136.1,-150.7 108.21,-349.2 104.9,-704.37 -9.96,-1066.2 -3.31,-9.96 -15.26,-13.94 -23.9,-7.96l-464.73 315.35c-7.3,5.31 -11.27,14.6 -9.28,23.22l116.83 577.59c3.99,19.25 0.68,39.84 -10.61,56.44l-331.94 508.54c-3.31,5.31 -5.97,10.61 -7.3,16.58l-19.91 79.02c-4.65,18.57 17.26,31.86 31.2,19.25zm-510.53 -1249.44c-69.7,138.09 -118.16,234.35 -145.39,288.12 -223.72,432.19 -193.17,1031.68 178.59,1386.87 21.25,20.57 56.44,1.98 51.79,-27.23 -21.91,-140.07 -14.6,-275.51 22.56,-406.96 3.99,-14.6 17.93,-23.9 33.2,-21.91 14.6,1.99 25.89,14.6 25.89,29.87l0 373.78c0,17.26 22.56,23.9 31.86,9.96 79.68,-117.5 130.13,-244.31 150.7,-379.09 72.38,-475.34 -31.2,-894.25 -312.02,-1257.4 -9.96,-12.61 -29.88,-10.61 -37.19,3.99zm504.55 976.56c220.42,-255.6 272.85,-550.36 157.34,-885.61 -11.95,-33.2 -54.44,-43.15 -79,-17.93l-161.99 161.33c-27.21,27.21 -39.82,65.72 -34.51,103.56l91.61 630.69c1.99,13.29 17.93,17.93 26.55,7.96zm910.85 -478c-15.92,92.29 -34.51,190.54 -56.42,295.44 -3.33,15.94 11.29,29.88 27.21,25.89l327.95 -83.65c19.25,-4.65 33.87,-19.91 37.84,-39.18 5.98,-27.21 15.28,-78.32 27.89,-154.01 15.26,-92.29 34.51,-190.54 56.44,-295.44 3.31,-15.92 -11.29,-29.87 -27.23,-25.88l-327.95 83.65c-19.25,4.65 -33.85,19.91 -37.84,39.16 -5.97,27.21 -15.26,78.34 -27.89,154.01zm-1044.29 1229.53c41.18,-47.14 81,-74.35 119.5,-81.65 29.23,-5.33 51.13,27.21 34.53,51.77 -46.48,68.39 -112.86,108.89 -199.16,120.84 -24.58,3.31 -35.19,32.54 -18.59,51.11l3.97 4.65c22.58,25.89 57.1,38.5 91.63,34.53 122.81,-14.6 240.99,-27.89 353.85,-40.5 450.77,-50.45 807.29,-556.34 957.31,-954 9.97,-25.89 -9.96,-53.13 -37.17,-51.79 -541.08,23.24 -979.24,270.86 -1315.83,742.89 -16.6,23.9 -27.21,58.41 -31.2,104.22 -1.99,22.58 25.89,35.19 41.16,17.93zm1489.11 -835.84c-13.94,-1.32 -27.23,7.3 -31.22,20.59 -105.55,343.22 -321.31,632.67 -647.95,869.01 -221.72,160 -468.02,223.74 -738.9,191.2 -31.86,-3.97 -44.47,39.84 -15.92,54.44 205.12,104.9 469.36,210.45 717,152.7 395.66,-92.95 753.5,-378.41 897.56,-760.81 57.75,-152.7 159.34,-301.4 304.06,-446.14 11.29,-11.95 4.65,-31.86 -11.95,-33.2l-472.67 -47.8z"/>
   <path class="fil0" d="M28472.07 6879.15c1.34,11.29 -7.3,21.25 -18.57,21.92l-22.58 1.98c-14.6,1.34 -28.55,-8.62 -31.86,-23.22 -35.19,-148.05 -59.75,-240.33 -73.69,-278.18 -192.53,-521.81 -629.36,-770.1 -1172.43,-738.9 -124.15,7.3 -292.11,9.96 -504.55,7.96 -23.22,0 -41.82,18.59 -42.49,41.83 -1.98,1901.37 -2.65,3288.88 -1.98,4161.89 0,171.95 28.55,322.65 86.3,452.12 94.92,215.1 284.8,216.42 478,270.2 13.27,3.97 21.91,16.6 19.91,30.52 -1.32,13.94 -13.27,23.9 -27.21,23.9l-1652.42 0c-17.26,0 -31.86,-13.27 -33.85,-29.87 -1.32,-17.26 9.96,-33.2 26.55,-37.19 117.5,-26.55 198.5,-48.46 242.33,-65.06 293.42,-110.2 298.07,-470.04 299.41,-760.81 1.99,-527.79 1.99,-1881.45 -0.66,-4060.98 0,-27.89 -23.24,-49.79 -51.13,-47.8 -119.5,7.3 -306.05,9.96 -558.99,7.96 -509.2,-3.99 -993.16,290.11 -1141.87,784.71 -28.55,94.28 -53.78,167.3 -76.35,219.75 -5.33,13.29 -19.93,19.93 -33.87,16.6 -13.27,-3.99 -22.56,-17.26 -21.23,-31.2l106.87 -1052.91c1.99,-23.9 22.58,-42.49 46.48,-42.49l3997.24 0c33.85,0 61.74,25.89 65.06,59.07l97.59 1068.19z"/>
   <path class="fil0" d="M51863.4 9045.42l-17.93 0c-10.61,0 -19.25,-7.98 -20.59,-17.93 -50.45,-414.92 -289.45,-627.36 -717.65,-637.32 -156.01,-3.33 -443.46,-7.98 -861.05,-13.29 -14.6,0 -27.23,12.61 -26.55,27.21 5.97,483.98 1.99,985.22 -11.29,1503.71 -3.31,148.05 15.94,318 58.41,511.19 52.45,235.01 217.09,356.5 495.27,365.12 11.27,0.68 19.91,9.3 19.91,19.93l0 27.21c0,9.96 -8.64,18.59 -18.59,18.59 -693.75,-1.99 -1220.89,0.66 -1580.04,6.64 -19.25,0 -33.85,-5.33 -45.15,-15.28 -17.26,-15.92 -10.61,-43.81 11.29,-49.12 396.34,-93.62 477.34,-184.57 505.89,-616.75 29.21,-446.14 1.98,-911.53 4.65,-1351.68 5.97,-1141.89 3.31,-1962.44 -9.3,-2461.69 -8.64,-326.64 -163.99,-505.21 -466.72,-535.75 -19.91,-1.99 -33.85,-19.91 -31.86,-39.18l3.31 -17.26c1.99,-9.96 9.97,-16.6 19.93,-16.6l3328.72 0c27.21,0 49.78,20.59 52.45,47.8l97.58 1068.19c1.34,13.29 -7.3,24.58 -20.57,27.23 -12.63,2.65 -25.24,-3.99 -29.88,-16.6 -40.5,-112.2 -89.62,-325.3 -148.05,-428.88 -273.51,-487.29 -726.29,-611.44 -1294.56,-586.21 -124.15,5.31 -421.58,7.3 -893.59,5.97 -26.55,-0.66 -47.8,20.59 -47.8,47.14l0 2295.72c0,22.56 17.26,40.5 39.82,41.82 171.95,7.3 437.5,3.99 797.99,-11.27 393.03,-17.28 705.05,-124.82 748.87,-571.62 1.98,-23.22 22.56,-39.82 45.8,-37.83l1.99 0c20.57,3.97 35.17,21.91 35.17,42.47l5.33 1337.07c0,17.26 -13.94,31.2 -31.2,31.2z"/>
   <path class="fil0" d="M13041.4 9861.98c0.66,-7.3 1.99,-13.27 3.99,-17.26 171.93,-281.49 381.72,-525.8 630.67,-732.92 221.08,-183.9 339.25,-340.58 566.97,-580.24 63.72,-67.05 127.46,-168.64 191.86,-306.05 17.26,-36.53 23.9,-77.01 20.59,-116.85 -41.18,-509.86 48.46,-999.8 332.6,-1426.03 1.99,-3.31 4.65,-5.97 7.3,-8.62l703.71 -744.89c11.29,-11.95 31.2,-4.65 31.88,11.95 13.93,387.05 16.58,928.1 -108.89,1277.98 -154.69,429.52 -425.55,762.8 -813.93,1001.14 -19.91,11.95 -37.17,28.53 -49.78,48.46 -144.08,227.05 -343.24,451.44 -597.5,672.51 -5.33,4.65 -1.99,13.29 4.65,13.29l148.71 0c11.95,0 22.56,-5.98 29.87,-15.28 88.96,-120.16 189.88,-201.15 302.08,-242.97 522.47,-193.85 858.4,-332.6 1009.1,-415.59 303.4,-167.3 613.44,-422.9 931.44,-766.13 14.6,-15.26 32.52,-25.89 53.11,-30.54 175.92,-39.16 310.04,-156.67 531.1,-190.52 34.53,-5.31 229.7,-25.89 585.55,-62.4 27.21,-2.65 43.81,29.87 25.24,49.78 -246.98,269.54 -443.48,625.39 -908.19,711.03 -222.4,40.5 -444.8,55.1 -668.54,43.81 -35.19,-1.99 -69.7,6.64 -100.25,23.9 -418.25,244.32 -727.61,406.3 -928.78,485.3 -359.82,142.08 -611.42,253.6 -754.16,335.28 -19.93,11.27 -23.24,37.83 -7.3,53.77l14.6 14.6c4.65,4.65 11.29,5.98 17.26,3.33 302.06,-116.19 590.19,-156.69 863.71,-120.18 187.23,24.58 325.98,25.24 416.27,3.33 802.62,-198.5 1341.7,216.42 1830.31,777.4 23.9,27.89 1.34,71.04 -35.17,66.39 -71.04,-9.3 -132.79,-8.64 -183.9,1.32 -768.13,152.04 -1367.6,-71.02 -1797.14,-669.2 -43.81,-61.07 -113.53,-98.25 -189.2,-100.91 -875.68,-28.55 -1578.07,289.45 -2107.18,952.68 -0.66,1.32 -2.65,0.66 -2.65,-0.68zm2120.44 -3075.1c16.6,7.3 21.25,19.91 13.94,38.5 -234.35,570.28 -404.3,975.25 -509.86,1216.24 -5.33,12.61 5.97,25.89 19.25,21.91 55.1,-16.6 102.22,-47.14 142.06,-91.61 193.19,-213.78 349.2,-380.42 455.43,-644.64 138.75,-344.55 136.1,-787.38 153.35,-1121.3 0.66,-8.64 -4.65,-15.28 -15.94,-19.93 -10.61,-4.65 -19.25,-3.97 -25.22,2.67 -230.38,242.31 -553.03,545.05 -707.7,882.96 -118.18,258.91 -132.13,486.63 -154.03,774.09 -4.65,59.09 5.98,114.85 31.2,165.96 6.64,11.95 23.9,11.29 29.21,-1.32 102.24,-241.65 279.5,-644.64 531.12,-1206.94 8.62,-17.93 20.57,-23.24 37.17,-16.6zm935.43 1177.74c597.5,-16.6 922.12,-86.98 1268.01,-577.59 11.29,-15.94 0.66,-37.19 -18.59,-37.84 -337.25,-9.96 -624.71,80.34 -863.05,271.54 -27.21,21.91 -60.41,35.85 -94.94,39.16 -66.37,6.64 -112.86,48.46 -139.41,124.81 -8.62,23.24 -25.22,43.15 -47.14,54.44 -56.42,29.88 -96.92,59.09 -122.15,88.3 -12.61,14.6 -1.99,37.84 17.28,37.19zm627.36 1447.26l-1262.7 -461.4c-28.55,-10.61 -51.79,23.9 -31.88,47.14 165.32,188.55 401.65,435.5 645.3,527.11 303.4,114.85 621.4,127.48 954.68,38.5 13.94,-3.31 28.55,-3.31 41.82,0.68 23.24,7.3 43.83,10.61 61.09,9.3 17.26,-1.34 25.22,-22.58 13.27,-35.19 -2.65,-2.65 -57.08,-62.4 -162.65,-178.59 -347.21,-381.74 -784.71,-541.06 -1312.5,-479.31 -29.87,3.31 -32.52,45.15 -3.99,53.11 243.65,67.05 509.88,167.3 798.67,300.74 95.6,44.47 184.56,98.91 266.87,163.31 3.33,2.65 3.99,7.3 1.99,10.61 -1.99,3.99 -5.97,5.33 -9.96,3.99z"/>
   <path class="fil0" d="M34673.95 5921.24c184.71,-30.6 359.97,99.51 391.3,290.52 31.73,190.73 -92.42,370.64 -276.77,401.12 -184.76,30.6 -360.02,-99.53 -391.37,-290.52 -31.73,-190.73 92.42,-370.65 276.84,-401.12z"/>
   <path class="fil0" d="M65783.07 5939.57c171.27,-67.52 367.12,23.43 438.16,203.34 71.04,179.93 -10.61,380.42 -181.9,447.66 -171.29,67.52 -367.14,-23.43 -438.16,-203.34 -71.04,-179.93 10.61,-380.42 181.9,-447.66z"/>
   <path class="fil0" d="M17255.21 6142.32c13.15,7.23 -37.32,122.08 -113.19,256.26 -75.48,134.03 -147.18,236.93 -160.6,229.57 -13.14,-7.25 37.32,-122.1 113.19,-256.26 75.48,-134.05 147.18,-236.95 160.6,-229.57z"/>
   <path class="fil0" d="M31633.49 7517.14l5.31 -28.55c5.33,-28.55 29.88,-49.78 59.09,-49.78l447.45 0c20.59,0 37.19,-16.6 37.19,-37.19l0 -794.66c0,-12.63 7.96,-23.24 19.25,-27.23l475.34 -168.62c11.95,-3.99 24.56,4.65 24.56,17.92l0 985.88c0,19.25 15.94,34.51 35.19,34.51l842.46 0c27.23,0 49.14,21.91 49.14,49.14l0 26.55c0,16.6 -13.29,29.87 -29.88,29.87l-869.69 0c-23.9,0 -42.47,19.93 -40.5,43.83 10.63,148.03 13.94,984.52 9.97,2509.48 -0.68,302.06 190.52,569.61 503.87,568.95 248.97,-1.34 353.87,-97.59 529.13,-258.93 7.3,-6.64 18.59,-4.65 23.24,3.33l34.51 56.42c1.34,2.65 1.34,5.33 -0.66,7.98 -201.15,246.3 -420.9,386.37 -657.92,420.22 -704.37,102.9 -957.31,-393.01 -953.32,-999.15 0.66,-147.37 4.65,-909.51 11.27,-2287.08 0.68,-28.55 -23.22,-52.45 -52.45,-52.45l-460.72 0c-26.57,0 -46.48,-23.9 -41.83,-50.45z"/>
   <path class="fil0" d="M30496.93 10351.27c-1.34,-16.6 -22.58,-22.56 -31.88,-9.3 -290.77,412.28 -696.41,601.49 -1216.24,568.29 -535.09,-33.85 -918.81,-374.44 -831.17,-952.68 37.83,-246.96 173.26,-438.16 407.61,-574.26 222.4,-128.8 395.01,-206.46 517.16,-232.36 292.78,-61.74 640.67,-165.3 1043.63,-310.7 49.79,-17.93 84.31,-63.06 88.3,-115.51 22.58,-264.89 11.29,-511.19 -33.2,-738.24 -105.55,-533.1 -762.8,-568.29 -1132.59,-327.95 -102.9,67.05 -114.17,251.61 -104.9,397 32.54,545.71 -667.2,442.81 -542.39,-17.28 138.09,-511.17 914.18,-695.75 1336.42,-642.62 441.47,55.1 819.9,228.37 974.57,660.56 35.19,96.92 51.79,261.56 50.47,493.26 -7.32,1102.72 -7.32,1706.84 0.66,1811.74 16.6,214.44 115.51,318.68 297.41,313.35 30.54,-0.66 61.09,-9.96 86.98,-26.55 41.82,-25.88 91.61,-60.41 148.05,-103.56 23.22,-17.92 57.08,-6.64 61.73,20.59 0.68,6.62 -3.31,17.26 -12.61,32.52 -178.59,286.8 -580.24,399.65 -867.7,238.34 -144.06,-80.34 -223.74,-242.31 -240.32,-484.64zm-41.18 -1441.29c-266.87,96.94 -572.26,211.11 -916.81,342.56 -326.64,124.82 -516.5,338.59 -569.63,640.67 -57.1,325.3 81,689.76 426.23,763.46 364.46,77.67 675.16,-17.26 930.76,-284.8 106.23,-111.54 160,-212.45 161.33,-302.74 5.31,-471.35 5.31,-850.44 0,-1137.24 0,-16.6 -16.6,-27.21 -31.88,-21.91z"/>
   <path class="fil0" d="M38016.75 10346.62c-1.34,-16.6 -22.58,-22.56 -31.86,-9.3 -290.13,409.63 -693.1,597.5 -1210.93,563.64 -531.78,-34.51 -913.5,-373.76 -825.2,-948.69 37.83,-245.62 173.26,-436.16 406.3,-570.94 221.72,-127.46 393.01,-204.47 514.51,-230.36 291.45,-61.09 637.99,-163.99 1038.99,-307.39 49.12,-17.92 83.65,-63.06 87.62,-114.85 23.24,-264.22 12.63,-508.52 -31.86,-734.91 -104.24,-530.45 -758.15,-566.29 -1125.95,-327.95 -102.9,67.05 -114.19,250.27 -104.9,395.01 31.2,543.05 -664.55,439.49 -539.74,-17.93 138.09,-508.52 910.19,-691.1 1330.43,-637.32 438.82,55.1 815.25,228.37 968.6,658.56 34.53,96.28 51.11,260.24 49.79,490.62 -9.3,1097.4 -9.96,1698.21 -1.99,1802.44 15.94,213.1 114.19,317.32 295.44,312.02 30.52,-0.66 60.41,-9.96 86.3,-25.89 41.82,-25.88 90.95,-60.41 147.37,-102.9 23.24,-17.92 56.44,-6.62 61.74,20.59 0.68,6.64 -3.31,17.26 -12.61,31.86 -177.91,285.48 -578.24,397 -863.71,236.35 -142.74,-80.32 -222.4,-240.99 -238.34,-482.65zm-52.45 -1428.01c-263.56,96.92 -565.64,211.11 -906.2,342.56 -322.65,124.81 -509.88,336.59 -561.65,636 -55.1,321.99 82.99,682.48 424.89,754.18 361.15,75.67 667.86,-19.25 920.14,-284.8 104.88,-110.88 158,-211.13 158.66,-300.74 3.31,-466.72 1.99,-841.8 -3.99,-1125.29 -0.66,-16.6 -16.6,-27.21 -31.86,-21.91z"/>
   <path class="fil0" d="M55938.99 10124.9c-20.59,40.48 -51.79,86.96 -93.6,140.73 -482.65,618.74 -1099.39,799.99 -1851.58,543.73 -959.31,-326.64 -1226.85,-1504.37 -909.53,-2361.44 480.65,-1301.22 2336.22,-1479.14 2809.57,-53.78 43.81,132.13 49.12,331.29 82.31,490.62 5.33,25.22 -14.6,49.12 -40.5,49.12l-2362.75 0c-20.59,0 -38.5,15.94 -40.5,36.51 -41.16,438.84 51.79,833.18 278.16,1182.38 237.68,366.46 542.39,517.18 981.89,507.88 468.7,-9.97 822.55,-196.52 1062.23,-558.33 12.61,-18.59 35.17,-27.21 56.42,-21.91l8.64 1.99c18.59,4.65 27.87,25.22 19.25,42.49zm-2351.48 -1313.17l1792.49 -6.64c7.3,0 13.27,-5.97 13.27,-13.27l-0.66 -170.63c-1.99,-610.76 -385.05,-1105.36 -855.09,-1103.36l-115.51 0c-470.7,1.98 -850.44,498.57 -848.44,1110.01l0.66 170.61c0,7.32 5.98,13.29 13.29,13.29z"/>
   <path class="fil0" d="M57387.58 8058.88c0,13.94 14.6,23.24 27.21,17.93 1.34,-0.68 41.83,-68.39 123.49,-203.83 203.81,-339.9 692.44,-574.91 1081.46,-430.2 345.23,128.8 321.99,682.48 -114.17,626.04 -121.49,-14.6 -183.9,-132.77 -225.73,-232.36 -85.64,-203.81 -305.39,-203.15 -468.04,-82.31 -211.77,158 -351.85,383.06 -418.91,675.82 -5.97,25.24 -8.62,51.13 -7.96,77.03 7.96,402.97 7.3,843.12 -1.99,1319.14 -5.98,294.1 9.96,529.11 48.46,705.03 43.83,199.18 214.44,218.43 397.68,256.93 15.92,3.31 26.55,17.92 25.22,34.51 -1.99,16.6 -15.92,28.55 -31.86,28.55l-1370.25 5.98c-24.58,0.66 -43.17,-21.91 -37.19,-45.8l0.66 -3.99c6.64,-27.21 30.54,-46.46 58.43,-46.46 244.31,-3.99 368.45,-128.14 373.1,-371.78 15.26,-938.06 13.27,-1738.71 -5.31,-2401.94 -6.64,-246.96 -128.14,-361.15 -363.82,-342.56 -25.88,1.99 -49.78,-15.94 -55.1,-41.18l-0.66 -2.65c-1.34,-21.25 13.29,-39.82 34.51,-43.15l898.92 -132.11c19.91,-2.65 37.17,11.95 37.17,31.86l-5.31 601.49z"/>
   <path class="fil0" d="M64751.39 10087.06c13.29,-15.28 27.21,-15.28 42.49,1.32 15.26,16.6 17.92,33.85 7.96,51.79 -170.61,288.79 -390.36,501.9 -660.56,637.99 -832.52,420.9 -1945.84,-91.63 -2192.14,-993.18 -86.98,-318.66 -119.5,-580.9 -98.93,-786.04 77.01,-754.16 451.44,-1262.7 1122.63,-1526.26 361.81,-142.08 843.8,-95.6 1181.05,115.51 451.44,282.15 676.5,714.34 674.5,1295.9 0,27.23 -22.56,49.79 -49.79,49.79l-2298.36 0c-33.2,0 -61.09,26.55 -63.08,59.75 -31.2,576.25 204.48,1376.9 813.27,1589.34 371.11,130.13 985.86,112.2 1271.34,-211.11 5.97,-6.64 88.96,-101.58 249.61,-284.8zm-2267.83 -1279.98l1787.18 6.64c7.96,0 14.6,-6.64 14.6,-14.6l0 -110.88c2.65,-647.95 -375.75,-1174.41 -844.46,-1176.4l-119.5 0c-468.04,-1.99 -849.78,521.81 -852.43,1169.78l0 110.86c0,7.96 5.98,14.6 14.6,14.6z"/>
   <path class="fil0" d="M71795.2 10348.62c-1.32,-16.6 -22.56,-23.24 -31.86,-9.96 -290.79,410.95 -695.75,598.81 -1214.9,564.96 -533.78,-34.51 -915.5,-375.1 -827.22,-952 37.84,-246.3 173.94,-437.5 407.63,-572.26 222.4,-128.14 395.01,-205.14 516.5,-231.04 292.78,-61.09 639.99,-163.99 1042.3,-308.04 49.14,-17.26 84.33,-62.4 88.3,-114.85 22.58,-264.89 12.61,-509.86 -31.86,-736.91 -104.24,-531.78 -760.15,-568.29 -1129.28,-329.29 -102.9,66.39 -114.85,250.95 -105.55,395.66 31.2,545.05 -666.54,440.83 -541.06,-17.92 138.75,-509.86 913.5,-692.44 1334.4,-638.65 440.83,55.76 817.9,229.7 971.28,661.22 34.51,96.28 51.11,260.24 49.12,491.94 -9.3,1100.73 -10.61,1702.87 -2.65,1807.77 15.94,213.76 114.85,318 296.09,313.35 31.2,-0.68 61.07,-9.96 86.96,-26.55 41.83,-25.89 91.63,-60.43 148.05,-102.9 23.24,-17.28 56.44,-6.64 61.74,20.57 0.66,6.64 -3.31,17.26 -12.61,32.54 -179.25,286.12 -580.24,397.66 -866.38,236.35 -143.4,-81 -223.06,-242.33 -239,-483.98zm-42.49 -1434.65c-264.87,96.26 -568.27,209.79 -910.17,340.56 -323.98,124.82 -512.53,336.59 -564.98,636.68 -55.76,323.31 81.65,685.12 424.23,758.15 362.47,77.01 669.85,-17.93 924.12,-284.14 104.9,-110.86 158.02,-211.11 159.34,-300.74 5.31,-468.04 4.65,-844.46 -0.66,-1129.26 -0.66,-15.94 -16.6,-27.23 -31.88,-21.25z"/>
   <path class="fil0" d="M40325.74 8035.64c0,22.58 29.21,30.54 41.16,11.29 243.65,-395.01 570.28,-611.44 978.58,-647.95 333.92,-29.88 624.05,42.49 870.35,215.76 304.71,215.76 381.74,533.78 377.75,936.08 -1.99,204.47 1.99,811.94 12.61,1822.35 3.33,353.85 156.69,329.29 409.63,412.94 15.92,5.31 25.88,21.91 23.22,38.5 -2.65,16.6 -16.6,29.21 -33.85,29.21l-1362.95 0c-5.98,0 -11.29,-3.97 -12.61,-9.28l-5.33 -15.94c-4.65,-26.55 12.63,-52.45 39.18,-57.75 212.45,-45.15 391.02,-104.24 394.35,-365.8 8.62,-658.58 10.61,-1294.58 5.31,-1907.34 -1.99,-244.98 -93.6,-618.08 -324.64,-770.12 -90.95,-60.41 -213.1,-96.26 -366.46,-108.87 -408.29,-32.54 -729.6,142.06 -965.29,524.46 -98.91,160.67 -73.69,306.73 -75.69,485.98 -7.3,647.95 -9.3,1215.56 -5.97,1702.86 1.99,274.19 131.45,425.55 387.05,454.76 17.26,1.99 30.52,17.28 29.21,35.19l-0.66 17.26c-0.68,6.64 -5.98,11.29 -12.63,11.29l-1351.66 0c-13.94,0 -25.89,-10.61 -27.89,-23.9 -1.99,-13.94 6.64,-27.21 19.91,-31.2l185.89 -54.44c84.99,-24.56 154.03,-86.96 187.89,-168.62 39.16,-96.28 57.75,-226.39 56.42,-389.04 -7.3,-906.2 -8.62,-1551.5 -3.31,-1934.57 3.99,-312.67 17.93,-611.42 -398.34,-604.12 -23.22,0.66 -42.47,-18.59 -42.47,-41.83l0 -19.25c0,-13.94 9.96,-25.89 23.9,-27.89l905.54 -131.45c21.91,-3.31 41.82,13.94 41.82,35.85l0 575.59z"/>
   <path class="fil0" d="M45652.09 10350.61c-0.68,-16.6 -21.92,-22.58 -31.88,-9.3 -289.45,411.6 -694.41,601.49 -1213.57,568.95 -534.43,-33.2 -918.17,-372.44 -831.19,-950.01 37.17,-246.98 172.61,-438.18 406.3,-574.27 222.4,-128.8 394.35,-206.46 515.84,-232.36 292.76,-62.4 639.97,-165.96 1042.3,-312.02 49.12,-17.28 83.65,-62.42 87.62,-114.87 22.58,-264.87 11.29,-510.52 -33.85,-737.56 -106.21,-532.44 -762.14,-566.29 -1131.25,-325.98 -102.9,67.07 -114.19,251.63 -104.24,396.34 33.2,545.05 -665.87,443.48 -541.72,-16.6 137.41,-510.52 912.17,-695.75 1333.74,-643.3 440.81,54.44 818.56,227.05 973.91,658.58 35.19,96.92 51.79,260.9 51.13,492.6 -5.98,1101.39 -5.33,1704.19 2.65,1809.09 16.6,213.76 116.17,318 297.41,312.69 31.2,-1.34 61.09,-9.96 86.96,-26.55 41.83,-26.57 90.97,-61.09 147.39,-103.58 23.9,-17.92 57.1,-6.64 61.74,19.93 1.34,6.62 -3.31,17.92 -12.61,32.52 -177.93,286.8 -578.92,400.33 -865.72,239.66 -144.06,-80.32 -224.38,-241.65 -240.97,-483.96zm-37.84 -1436.64c-268.21,94.26 -574.26,205.8 -919.49,334.6 -327.95,122.15 -519.15,333.94 -574.91,635.34 -59.75,325.3 75.01,690.44 419.56,766.77 363.8,81 674.5,-11.27 932.75,-276.82 106.89,-110.2 161.99,-210.45 163.99,-300.74 9.3,-471.35 12.61,-850.44 9.3,-1137.24 0,-15.94 -15.94,-27.21 -31.2,-21.91z"/>
   <path class="fil0" d="M60166.61 8074.82c0.66,-0.68 41.82,-68.39 123.47,-203.83 204.48,-339.9 693.77,-574.91 1083.47,-429.52 345.21,128.8 321.31,683.14 -114.85,626.7 -122.15,-15.26 -184.57,-133.44 -225.73,-233.03 -85.64,-204.47 -306.05,-203.81 -468.7,-82.97 -212.45,158 -352.51,383.72 -420.24,676.5 -5.97,25.22 -8.62,51.11 -7.96,77.01 7.3,403.64 6.64,843.8 -3.31,1320.48 -5.98,294.76 9.96,529.77 47.8,705.7 43.81,199.82 214.42,219.07 397.66,257.59 15.94,3.31 27.21,18.57 25.22,34.51 -1.32,16.6 -15.26,29.21 -31.86,29.21l-1371.59 4.65c-24.56,0.66 -43.15,-22.56 -37.17,-46.46l0.66 -3.99c6.64,-27.21 30.54,-45.8 58.41,-46.46 244.98,-3.33 369.13,-127.48 373.78,-371.78 16.6,-938.74 15.26,-1740.04 -2.65,-2404.59 -6.64,-247.64 -128.14,-361.81 -363.82,-343.24 -26.55,1.99 -49.78,-15.92 -55.1,-41.16l-0.66 -2.65c-1.99,-21.25 13.29,-40.5 34.53,-43.15l900.22 -131.45c19.93,-2.65 37.19,11.95 37.19,31.86l-5.98 602.14c0,13.94 13.94,23.24 27.23,17.93z"/>
   <path class="fil0" d="M66634.83 10806.03c22.58,13.29 12.61,47.8 -13.27,47.8l-1344.38 0c-19.91,0 -35.85,-15.92 -35.85,-35.85l0 -17.26c0,-15.26 11.95,-27.21 27.21,-27.87 440.83,-18.59 410.29,-342.58 413.6,-718.99 9.3,-1013.75 7.32,-1700.88 -6.62,-2061.37 -4.65,-120.82 -41.83,-217.09 -112.88,-289.45 -66.37,-67.71 -195.17,-60.41 -276.82,-88.96 -33.2,-11.95 -28.55,-60.41 6.62,-65.73l878.33 -127.46c24.56,-3.31 45.8,15.26 46.46,39.84 1.99,140.07 0.68,1033 -5.31,2680.1 -0.66,209.13 0,559.65 231.7,603.48 85.64,16.6 149.38,37.17 191.2,61.73z"/>
   <path class="fil0" d="M68058.87 8019.72c11.95,-16.6 59.75,-83.65 144.06,-199.84 225.05,-311.36 519.15,-449.45 881.64,-414.26 237,23.22 424.23,173.92 390.36,412.26 -25.88,185.23 -138.75,270.88 -337.25,258.25 -70.36,-4.65 -132.77,-45.8 -165.96,-108.21 -41.83,-80.34 -84.31,-148.71 -127.46,-206.46 -156.03,-209.13 -434.19,-36.53 -549.04,114.17 -187.89,246.3 -281.49,514.52 -280.16,803.3 1.98,464.07 2.65,926.79 1.32,1388.19 -0.66,376.43 -33.85,694.43 406.96,713.68 17.28,0.66 31.2,15.26 31.2,32.54l0 18.57c0,9.97 -7.96,17.93 -17.26,17.93l-1358.96 0c-13.29,0 -24.58,-9.96 -26.55,-22.58 -1.34,-13.27 6.62,-25.88 19.25,-29.87 187.87,-56.44 331.93,-73.69 380.4,-261.58 32.52,-125.46 47.12,-323.97 43.81,-594.17 -11.29,-889.6 -13.94,-1541.54 -9.3,-1956.48 2.65,-237.66 -120.82,-352.51 -370.45,-344.55 -27.21,0.66 -51.77,-16.6 -60.41,-42.49l-0.66 -1.32c-4.65,-21.25 9.96,-41.83 31.2,-45.15l878.97 -120.16c27.89,-3.99 52.45,17.92 52.45,45.8l0 528.45c0,22.56 28.55,31.86 41.83,13.94z"/>
   <path class="fil0" d="M35454.16 10802.06c22.56,13.27 13.27,47.8 -13.29,47.8l-1340.39 0c-19.91,0 -35.85,-15.94 -35.85,-35.85l0 -16.6c0,-15.26 11.95,-27.89 27.23,-27.89 439.49,-18.59 408.95,-341.9 412.26,-717.65 9.3,-1011.1 6.64,-1696.23 -7.3,-2055.39 -4.65,-120.16 -41.82,-216.43 -112.2,-288.79 -66.39,-67.05 -195.17,-59.75 -276.17,-88.3 -33.87,-11.95 -28.55,-60.41 6.62,-65.72l875.68 -127.48c23.9,-3.31 45.8,15.28 46.46,39.84 1.99,139.41 0.68,1030.35 -4.65,2672.79 -0.66,208.47 0,558.33 231.04,601.49 85.64,16.6 149.36,37.19 190.54,61.74z"/>
   <path class="fil0" d="M16330.28 7738.23c194.51,-17.93 373.76,-71.7 537.75,-161.33 19.91,-10.61 44.49,-0.66 51.11,21.25l4.65 17.26c3.33,9.3 -1.99,19.27 -11.27,23.24l-539.74 215.76c-27.89,11.29 -59.75,-3.97 -67.73,-32.52l-9.96 -33.2c-6.62,-23.9 9.96,-48.46 35.19,-50.45z"/>
   <path class="fil0" d="M20740.46 9473.62c19.93,3.99 24.58,30.54 7.3,40.5 -289.45,167.96 -562.31,444.8 -822.55,578.9 -477.34,244.98 -970.6,249.63 -1479.14,13.94 -25.22,-11.29 -53.77,-12.61 -79.66,-3.31 -472.03,167.3 -973.25,262.22 -1505.03,284.8 -13.94,0.66 -25.22,11.27 -25.89,25.22 -0.66,13.94 8.64,25.89 22.58,28.55 242.97,43.15 474.01,110.2 693.1,202.49 37.84,15.94 77.67,26.55 118.16,31.86 187.23,22.58 572.28,119.5 632.69,302.08 30.54,92.27 -30.54,195.17 -136.1,228.37 -305.39,96.28 -496.59,-102.9 -576.91,-397 -7.3,-25.22 -25.24,-45.8 -49.79,-55.1 -410.95,-162.65 -685.14,-253.6 -821.89,-273.51 -357.84,-52.45 -782.73,-83.65 -1273.34,-94.94 -16.6,-0.66 -29.87,-13.94 -29.87,-30.54l0 -25.89c0,-13.94 11.27,-25.22 25.22,-24.56 175.94,3.99 501.24,7.3 976.58,10.61 225.71,1.34 404.3,-8.62 536.41,-29.87 205.14,-33.2 436.84,-33.2 709.69,-93.6 339.9,-75.03 590.85,-145.39 753.52,-211.13 101.56,-41.16 145.38,-166.62 219.73,-230.36 440.83,-376.41 1007.12,-509.86 1572.08,-386.39 182.58,39.84 359.83,76.35 533.1,108.89zm-2090.56 412.94c-10.63,9.96 -1.34,27.21 12.61,23.9l1087.44 -276.84c6.64,-1.99 13.94,2.65 15.94,9.96l4.63 17.26c3.99,15.28 -5.31,30.54 -19.91,35.19l-1140.55 332.6c-17.26,4.65 -18.59,28.55 -1.99,35.19 515.18,202.49 1003.79,134.1 1465.85,-205.8 205.14,-150.7 336.59,-246.98 393.03,-287.46 12.61,-9.3 7.96,-28.55 -7.3,-31.88 -260.24,-49.12 -606.79,-150.7 -878.33,-111.52 -343.89,49.12 -654.59,202.47 -931.42,459.4zm-980.63 904.28c-25.16,42.42 -4.59,101.51 46.46,132.03 51.19,30.54 112.93,20.59 138.3,-21.91 25.09,-42.49 4.5,-101.56 -46.54,-132.05 -51.19,-30.6 -112.93,-20.64 -138.22,21.92zm223.13 82.92l-47.14 146.71c-9.96,29.21 5.97,60.43 35.85,69.7l29.87 9.97c132.13,43.15 256.27,23.22 278.18,-43.83l3.31 -9.96c21.91,-67.05 -67.71,-156.01 -199.16,-198.5l-30.54 -9.96c-29.21,-9.3 -60.41,6.64 -70.36,35.85z"/>
   <path class="fil2" d="M18649.9 9886.56c276.82,-256.93 587.52,-410.29 931.42,-459.4 271.54,-39.18 618.08,62.4 878.33,111.52 15.26,3.33 19.91,22.58 7.3,31.88 -56.44,40.48 -187.89,136.76 -393.03,287.46 -462.06,339.9 -950.67,408.29 -1465.85,205.8 -16.6,-6.64 -15.26,-30.54 1.99,-35.19l1140.55 -332.6c14.6,-4.65 23.9,-19.91 19.91,-35.19l-4.63 -17.26c-1.99,-7.3 -9.3,-11.95 -15.94,-9.96l-1087.44 276.84c-13.94,3.31 -23.24,-13.94 -12.61,-23.9z"/>
   <path class="fil1" d="M16873.6 9486.62c5.04,-13 36.92,-13 71.64,-0.13 34.98,13.02 58.88,34.27 53.97,47.14 -5.04,13.02 -36.92,13.02 -71.64,0.13 -34.98,-13 -58.88,-34.25 -53.97,-47.14z"/>
   <path class="fil0" d="M14651.31 12040.86c-3.97,9.96 5.33,19.25 15.28,15.94 244.96,-92.29 499.9,-151.38 766.11,-177.25 27.89,-2.65 53.78,-15.28 73.69,-35.19 118.18,-118.18 209.79,-284.8 399,-106.89 211.79,198.5 9.3,426.23 -254.26,354.53 -12.61,-3.33 -24.56,-11.29 -33.2,-21.92l-69.7 -87.62c-16.6,-21.25 -43.83,-31.2 -71.04,-26.55 -15.94,2.65 -178.59,32.52 -488.61,88.96 -297.43,54.44 -537.75,179.91 -720.99,375.75 -10.61,11.29 -27.89,11.29 -38.5,0.66l-11.95 -11.95c-1.99,-1.99 -2.65,-5.97 -0.66,-7.96 141.4,-172.61 285.46,-348.54 433.51,-527.13 104.9,-126.12 316.01,-300.07 633.35,-521.81 23.9,-17.26 40.5,-43.15 45.15,-71.7 4.65,-26.55 5.97,-58.41 4.65,-94.94 -9.96,-274.17 292.76,-292.76 524.46,-304.71 21.25,-0.66 41.16,9.3 52.45,27.21 173.28,281.49 -232.36,569.63 -478,493.28 -21.91,-6.64 -45.15,-1.99 -63.06,11.95 -261.58,202.47 -664.55,487.95 -717.67,627.36zm1177.68 -1001.87c-37.79,-69.63 -162.59,-75.61 -279.03,-12.67 -116.58,62.53 -180.32,170.08 -143,239.92 37.69,69.57 162.52,75.56 278.95,12.61 116.58,-62.53 180.32,-170.08 143.08,-239.86zm65.98 836.57c-8.83,-68.39 -78.53,-116.19 -155.54,-106.55 -77.01,9.62 -132.79,73.36 -123.68,142.4 8.83,68.39 78.53,116.19 155.54,106.55 77.01,-9.62 132.79,-73.36 123.68,-142.4z"/>
   <path class="fil0" d="M13673.41 13176.76c82.33,-102.9 175.94,-254.26 281.49,-455.41 23.9,-45.8 59.09,-84.31 105.55,-115.51 17.93,-11.95 40.5,7.96 29.88,27.21 -106.89,197.16 -187.23,337.25 -240.33,418.91 -219.75,337.25 -331.94,732.28 -379.74,1121.98 -3.31,28.55 -29.21,49.12 -58.41,46.46l-20.59 -1.99c-15.26,-1.32 -26.55,-15.92 -24.56,-31.2l73.04 -547.7c3.31,-26.55 0.66,-53.77 -7.98,-79 -1.99,-7.3 -49.12,-84.99 -140.07,-234.35 -325.3,-532.44 -120.84,-948.69 106.21,-1461.2 8.64,-21.25 14.6,-43.17 16.6,-65.73l10.61 -91.61c3.33,-31.88 47.8,-37.84 59.09,-7.3 59.75,163.97 187.23,432.17 250.95,663.87 61.09,222.4 -17.26,560.33 -88.96,797.99 -5.31,16.6 16.6,27.89 27.21,14.6zm-258.91 122.17c14.6,37.83 32.54,65.72 53.11,83.65 13.29,11.95 34.53,6.62 41.16,-9.97l35.19 -93.6c63.08,-260.9 98.25,-438.16 106.23,-532.44 21.25,-242.31 -33.87,-506.55 -165.32,-794 -7.3,-15.92 -29.87,-15.26 -35.85,1.34 -103.56,272.85 -170.61,470.02 -201.15,591.51 -45.8,181.9 -33.85,634.68 166.64,753.52z"/>
   <path class="fil0" d="M17332.74 15886.08c92.95,-263.56 221.74,-555.66 386.39,-876.99 13.94,-27.21 23.9,-56.44 29.88,-86.3 63.06,-301.4 134.1,-523.8 48.46,-744.21 -7.96,-21.92 -21.91,-41.18 -39.84,-57.1 -241.65,-211.79 -395.01,-430.87 -459.4,-658.58 -69.7,-243.65 -108.89,-375.75 -117.5,-395.66 -25.24,-47.8 -53.11,-93.62 -83.65,-138.09l-206.48 -297.43c-39.16,-57.08 17.28,-131.45 82.33,-108.21 403.64,141.4 683.14,401.65 837.81,781.39 114.19,279.5 92.95,631.35 94.28,925.45 0,49.14 8.64,84.99 25.89,108.23 11.95,15.92 36.51,10.61 41.16,-8.64l215.76 -954c5.98,-24.56 5.31,-51.13 -1.99,-76.35l-189.2 -648.63c-8.62,-29.87 -49.12,-33.85 -63.72,-5.97 -25.24,47.8 -61.74,80.34 -109.54,97.59 -20.59,7.3 -37.19,-17.26 -23.24,-33.85 154.69,-188.55 321.99,-422.9 -13.29,-566.29 -29.21,-12.63 -62.4,7.3 -65.72,39.16l-59.09 577.59c-1.99,17.92 -17.92,31.2 -35.85,29.21l-20.57 -1.99c-15.94,-1.32 -27.89,-15.94 -25.89,-31.86l72.36 -715.68c3.31,-31.86 38.5,-48.46 65.06,-31.2l281.49 183.9c17.26,11.29 39.84,2.65 45.8,-16.6 42.49,-145.39 110.2,-272.85 203.83,-381.06 23.9,-27.89 68.37,-23.9 86.96,7.96l182.56 316.01c8.64,15.94 29.23,20.59 44.49,9.97l96.92 -65.08c14.62,-9.96 34.53,1.34 32.54,19.25 -5.31,47.14 -29.87,86.98 -73.02,119.5 -18.59,13.94 -28.55,35.85 -27.89,58.43l12.61 310.7c0.66,14.6 -2.65,29.87 -8.62,43.15l-280.83 618.74c-3.31,7.3 -5.97,15.26 -6.64,23.9 -48.46,325.96 -93.6,553.01 -134.76,680.47 -100.25,311.38 -206.48,602.82 -318,873.02 -3.33,8.62 0,18.59 7.96,23.22 7.96,3.99 18.59,1.99 23.9,-5.31 170.63,-227.71 377.75,-408.95 622.05,-542.39 11.29,-6.62 25.24,-2.65 32.54,7.98l10.61 15.92c3.99,5.33 2.67,13.29 -2.65,16.6 -200.5,136.1 -409.61,325.98 -627.36,570.28 -239.66,269.54 -381.08,652.6 -577.59,994.5 -1.32,2.65 -5.31,3.99 -7.96,2.65 -2.65,-1.32 -4.65,-4.65 -3.33,-7.3zm906.88 -2797.62c2.65,0.68 5.31,0 7.3,-0.66 2.65,-0.66 6.64,-4.65 9.3,-10.61l237.66 -495.93c4.65,-9.3 6.64,-19.25 6.64,-29.21 -1.99,-231.04 -64.4,-438.84 -187.21,-624.05 -0.68,-0.66 -3.33,-1.99 -8.64,-1.99 -5.31,0 -8.62,0 -9.3,1.34 -142.06,169.95 -227.05,369.77 -254.92,598.81 -1.34,9.96 0,20.59 3.31,29.88l180.59 519.15c2.65,5.97 5.31,10.61 7.96,11.95 2.65,0.66 4.65,1.32 7.3,1.32zm-444.8 906.22l-61.74 -278.84c-1.99,-7.96 -1.34,-15.94 1.34,-23.24l43.15 -118.82c5.31,-13.29 5.97,-27.89 1.98,-41.83 -46.46,-163.99 -124.81,-336.59 -235.01,-518.5 -114.85,-189.2 -290.79,-287.46 -480.65,-345.21 -27.89,-8.64 -49.14,25.89 -28.55,47.12 145.39,150.7 240.99,318 286.14,503.23 80.32,326.64 250.27,582.23 438.16,793.34 13.94,15.26 39.84,3.31 35.19,-17.26z"/>
   <path class="fil0" d="M18891.56 12340.27c-19.25,0 -31.2,-20.57 -21.91,-37.17l13.27 -25.24c0.66,-1.32 2.65,-2.65 3.99,-2.65 98.91,1.99 165.96,25.24 199.82,69.05 48.48,63.06 45.82,151.36 -6.62,211.79 -56.44,65.06 -136.77,86.96 -240.33,65.06 -11.95,-1.99 -19.91,-12.61 -18.59,-24.56l2.65 -21.25c1.34,-13.94 13.94,-23.24 27.23,-21.25 72.36,9.96 128.8,-0.66 169.95,-33.2 18.59,-14.6 29.87,-37.19 30.54,-61.09 1.32,-79 -51.79,-118.82 -160,-119.5z"/>
   <path class="fil0" d="M13501.46 13275.03c-11.27,37.83 -32.52,39.16 -65.06,3.97 -43.15,-195.85 -39.16,-381.74 12.61,-558.99 3.33,-11.27 13.94,-18.57 25.89,-16.6 11.29,1.34 19.93,11.29 19.93,22.58l6.62 549.04z"/>
   <path class="fil3" d="M32364.62 12919.9c25.71,22.51 -12.14,108.81 -85.44,191.8 -72.75,82.99 -153.09,132.11 -179.17,109.49 -25.69,-22.51 12.14,-108.81 85.44,-191.88 72.75,-82.92 153.09,-132.05 179.17,-109.41z"/>
   <path class="fil0" d="M15276.03 14511.18l-128.14 237c-7.96,15.26 -9.3,33.2 -2.65,49.12 29.88,71.04 81,142.74 154.03,214.44 17.92,17.26 47.12,13.94 60.41,-6.64l48.46 -74.35c13.94,-21.25 41.83,-29.87 65.06,-19.91l18.59 7.96c23.24,9.96 28.55,39.84 11.29,57.1l-92.29 91.63c-29.21,29.21 -8.62,79.66 33.2,79.66l120.84 0c24.56,0 49.12,7.3 70.36,20.57 207.8,132.13 426.89,191.88 658.58,179.25 21.91,-1.32 31.2,-27.87 15.26,-42.47l-293.44 -270.2c-25.88,-23.9 -49.79,-50.45 -70.36,-79 -37.19,-51.13 -92.95,-150.04 -167.3,-296.77 -10.63,-20.57 -25.24,-38.5 -43.81,-53.11 -181.92,-140.07 -360.49,-238.34 -536.43,-295.42 -17.92,-5.98 -29.87,-23.24 -28.55,-42.49 0.66,-12.61 7.3,-23.9 20.59,-32.54 7.3,-4.65 16.6,-5.31 23.9,-0.66 38.5,23.9 71.7,37.84 98.91,42.49 26.55,3.97 52.45,-9.96 63.08,-34.53l102.9 -240.32c10.61,-23.9 44.47,-23.9 55.1,0l23.22 51.77c12.63,28.55 10.63,61.74 -6.62,87.64l-81 123.49c-10.63,16.6 -7.98,37.84 5.31,51.77l219.09 218.43c23.9,23.9 64.4,2.65 59.07,-30.54 -36.51,-222.4 -8.62,-449.45 83.65,-681.15 8.64,-22.56 -15.92,-43.15 -36.51,-30.54 -101.56,62.4 -193.85,108.89 -304.71,119.5 -85.64,7.98 -180.59,27.89 -284.82,59.09 -13.93,3.99 -25.88,4.65 -36.51,2.65 -21.91,-4.65 -23.9,-35.85 -2.65,-43.81 15.94,-5.98 87.64,7.3 132.11,-9.3 274.85,-102.9 521.15,-229.7 739.58,-379.74 27.87,-19.25 67.05,-2.65 71.7,31.2l35.85 246.3c4.65,29.21 13.27,57.1 27.21,82.99 92.95,173.94 284.14,399 338.59,598.81 60.41,218.43 75.01,479.99 -9.96,698.42 -27.89,71.7 -21.25,157.33 19.25,257.57 81.65,199.18 152.02,366.48 211.77,501.24 114.19,259.59 173.94,521.15 215.78,805.95 3.97,27.89 43.15,31.88 52.45,5.31 31.2,-88.28 86.3,-259.57 166.62,-515.16 25.89,-82.99 58.43,-148.71 97.59,-197.84 13.94,-16.6 40.5,-1.99 33.85,18.59l-329.29 1045.61c-4.63,14.62 0,29.88 11.95,39.84l3.33 1.99c13.94,8.64 32.52,1.32 37.84,-14.6 103.56,-318 281.47,-594.18 533.76,-828.53 19.91,-18.59 36.51,-39.84 49.14,-63.74 189.2,-359.16 400.31,-641.97 817.24,-721.63 242.31,-46.48 494.58,-66.39 755.5,-59.75 23.22,0.66 34.51,27.87 19.25,44.47 -45.15,50.45 -157.34,179.91 -336.59,388.38 -318,369.77 -719.65,539.72 -1204.29,508.52 -21.25,-1.32 -42.49,5.33 -59.75,17.93 -79.66,60.41 -151.36,135.44 -214.44,225.71 -475.34,681.82 -503.21,1392.18 -84.31,2132.41 13.29,23.22 -10.61,49.78 -35.19,39.82 -876.32,-344.55 -1676.96,-652.6 -2324.93,-1272.66 -44.47,-42.49 -92.93,-83.65 -146.05,-122.83 -49.78,-37.17 -90.27,-66.37 -92.27,-68.37 -969.94,-880.98 -1681.63,-2121.12 -2014.89,-3391.13 -1.34,-7.3 1.98,-14.6 8.62,-16.6l0.68 0c5.31,-1.99 11.95,0.66 13.93,5.97l689.78 1547.53c3.31,7.96 12.61,10.61 20.59,7.3l26.55 -11.29c12.61,-5.97 19.25,-20.57 14.6,-34.51 -81.65,-238.34 -124.81,-485.98 -129.45,-742.89 -0.68,-29.21 21.91,-53.11 51.11,-53.78l2.65 0c27.89,-0.66 51.79,21.25 53.11,49.14 24.58,390.36 110.88,779.4 259.59,1167.1 126.14,327.97 404.96,663.89 609.45,911.53 5.31,6.64 15.26,7.96 22.56,3.31 7.32,-4.65 9.97,-13.94 5.98,-21.91 -260.24,-507.88 -323.31,-1036.99 -189.86,-1586.69 7.3,-30.54 6.62,-62.4 -1.99,-92.95 -35.85,-128.12 -56.44,-201.15 -62.4,-220.41 -81.67,-270.2 -84.33,-537.09 -6.64,-800.65 109.54,-375.1 542.39,-815.91 833.16,-1093.41 17.93,-17.28 47.14,-4.65 47.8,19.91 4.65,296.75 10.63,540.4 17.93,729.6 5.31,126.8 20.59,205.8 45.15,237 9.3,11.29 11.29,25.89 5.31,39.18l-147.39 335.92c-1.98,3.33 -3.31,7.3 -3.97,11.95 -20.59,84.99 30.52,185.89 154.67,302.08 27.89,26.55 73.04,21.23 94.94,-9.97 68.39,-98.91 111.54,-154.67 128.14,-166.62 12.61,-9.3 29.21,5.31 21.91,19.25zm-1001.8 574.91c312.69,-359.16 585.55,-687.11 605.46,-1184.36 11.29,-276.84 4.65,-502.57 -19.91,-677.83 -1.34,-10.61 -14.6,-15.26 -22.58,-7.3 -136.1,131.45 -286.12,301.4 -451.44,510.53 -225.71,284.8 -314.01,616.07 -264.87,992.5 9.28,71.04 27.21,124.15 53.77,158.66 7.3,9.97 22.58,6.64 25.89,-4.65 89.62,-298.07 187.89,-569.61 294.76,-815.25 5.98,-13.27 16.6,-21.25 32.54,-23.22 16.6,-1.99 29.21,13.27 24.56,29.21l-315.35 1000.46c-7.3,22.58 21.91,39.18 37.19,21.25zm2125.09 9.3c212.45,-332.6 -105.55,-821.21 -280.16,-1120.64 -18.59,-33.2 -31.88,-69.05 -37.84,-106.21l-21.91 -136.76c-7.98,-47.8 -73.04,-57.1 -93.62,-13.29 -235.01,492.6 -201.81,1075.49 300.08,1384.87 19.91,12.61 42.49,-11.95 28.55,-30.54 -88.3,-118.84 -128.14,-242.99 -118.16,-371.78 2.65,-38.5 57.75,-44.47 68.37,-7.3l115.53 396.34c5.31,17.92 29.21,21.25 39.16,5.31zm-51.79 314.69c-213.1,49.79 -375.1,45.15 -487.29,-13.29 -250.95,-131.45 -428.86,-211.77 -533.76,-240.32 -10.61,-3.33 -19.91,-9.3 -26.55,-17.93l-459.4 -581.56c-15.94,-20.59 -48.48,-17.26 -59.75,6.64 -114.85,237 -276.18,439.49 -483.98,606.79 -22.56,17.92 -38.5,42.47 -45.15,70.36 -95.6,372.44 -104.22,688.45 -26.55,946.7 135.44,451.44 308.7,887.63 630.03,1262.04 13.94,16.6 33.2,27.89 54.44,32.54 60.41,13.94 99.57,27.87 118.16,42.49 627.38,497.25 1323.13,882.96 2087.25,1156.47 25.24,8.64 48.48,-16.58 37.19,-40.48 -124.81,-265.57 -207.8,-557.68 -249.63,-875.68 -1.98,-12.61 -5.31,-24.56 -10.61,-35.85l-223.06 -486.62c-32.54,-71.7 -104.9,-116.85 -183.9,-114.87 -349.2,9.97 -632.03,-90.95 -849.12,-302.72 -188.53,-184.56 -316.66,-514.51 -436.16,-750.19 -15.94,-30.54 11.95,-65.73 45.8,-57.75 491.28,121.49 900.89,243.65 1203.63,682.46 57.1,82.99 92.95,175.94 108.21,278.84 3.31,25.24 15.26,49.14 33.2,68.39 138.75,144.72 240.32,300.07 303.4,466.05 4.65,11.95 17.92,19.25 30.54,15.26 12.61,-3.31 21.25,-15.26 19.25,-28.55 -22.58,-167.3 -45.8,-372.44 -70.38,-616.09 -55.1,-550.36 -217.75,-1036.31 -487.29,-1457.89 -8.62,-12.61 -23.9,-18.59 -38.5,-15.26zm2648.91 159.34c-408.97,-33.2 -1048.28,117.5 -1204.29,550.36 -4.65,11.95 8.62,23.24 19.91,17.26l533.1 -296.75c1.99,-0.66 3.31,-0.66 5.31,0l47.14 21.91c9.96,4.65 10.61,18.59 1.34,23.9l-666.54 385.05c-22.58,13.29 -12.63,47.8 13.27,47.14 649.94,-11.29 867.04,-269.54 1262.72,-718.99 9.96,-11.29 2.65,-28.55 -11.95,-29.87zm-2594.47 1232.82c-237,-445.46 -562.98,-485.96 -986.54,-630.69 -21.25,-7.3 -41.16,14.62 -31.86,35.19 213.1,490.61 458.09,829.19 1053.59,815.25 15.92,-0.66 21.91,-21.25 8.62,-29.87l-586.86 -383.06c-10.63,-6.64 -13.29,-21.25 -6.64,-31.88l23.9 -37.17c5.31,-7.98 16.6,-10.63 24.56,-5.33l462.74 302.74c23.24,15.26 51.79,-10.61 38.5,-35.19z"/>
   <path class="fil3" d="M42075.07 15007.77c0,33.85 -27.21,61.07 -61.09,61.07l-11.95 0c-33.85,0 -61.07,-27.21 -61.07,-61.07l0 -1842.96c0,-33.85 27.21,-61.07 61.07,-61.07l11.95 0c33.87,0 61.09,27.21 61.09,61.07l0 1842.96z"/>
   <path class="fil3" d="M53194.89 14983.93c-13.02,37.11 -53.52,57.02 -90.29,44.02l-2.52 -0.87c-37.05,-12.68 -56.96,-53.18 -44.02,-90.29l622 -1806.57c13,-37.11 53.5,-57.02 90.27,-44l2.52 0.85c37.05,12.68 56.96,53.18 44.09,90.29l-622.05 1806.57z"/>
   <path class="fil1" d="M13501.46 13275.03l42.49 3.97 -35.19 93.6c-6.62,16.6 -27.87,21.92 -41.16,9.97 -20.57,-17.93 -38.5,-45.82 -53.11,-83.65 3.31,-6.64 10.61,-13.29 21.91,-19.93 32.54,35.19 53.78,33.85 65.06,-3.97z"/>
   <path class="fil3" d="M29700.26 14048.45c5.31,542.39 638.65,736.91 983.88,350.54 25.89,-28.55 70.36,-29.88 97.59,-2.65l13.94 13.94c22.56,22.56 23.22,58.41 1.98,81.65 -438.82,477.32 -1240.8,260.24 -1247.44,-442.15 -5.97,-701.73 791.37,-934.09 1238.82,-464.73 21.91,22.58 21.25,58.43 -0.68,81l-13.27 14.6c-26.55,27.23 -71.04,27.23 -97.59,-1.32 -352.51,-379.09 -981.89,-173.28 -977.24,369.11z"/>
   <path class="fil3" d="M36319.2 14044.46c0,392.37 -318,710.37 -710.37,710.37 -392.35,0 -710.35,-318 -710.35,-710.37 0,-392.35 318,-710.35 710.35,-710.35 392.37,0 710.37,318 710.37,710.35zm-760.88 -564.36c-300.01,24.63 -522.41,298.15 -496.67,610.37 25.37,312.49 289.6,545.52 589.74,521.02 300.01,-24.63 522.41,-298.15 496.65,-610.37 -25.37,-312.49 -289.58,-545.52 -589.72,-521.02z"/>
   <path class="fil3" d="M38142.21 14187.2c5.33,-19.91 -9.96,-39.16 -30.52,-39.16l-412.28 0c-33.85,0 -65.06,-20.59 -77.67,-52.45l-7.3 -18.59c-12.63,-31.2 10.61,-65.72 44.47,-65.72l582.89 0c25.24,0 45.8,19.91 46.48,45.13 7.3,339.92 -127.48,555.68 -405.64,646.63 -327.95,107.55 -709.04,-5.97 -884.29,-325.3 -128.8,-233.03 -78.34,-661.89 136.76,-852.43 313.35,-277.5 779.4,-249.61 1041.64,75.03 23.9,29.87 14.6,74.35 -19.25,91.61l-1.99 0.66c-37.84,19.25 -83.65,11.29 -113.53,-18.59 -118.82,-120.16 -254.92,-181.9 -408.27,-183.88 -663.89,-8.64 -714.34,985.86 -104.9,1115.31 289.45,61.74 541.06,-126.8 613.42,-418.25z"/>
   <path class="fil3" d="M43967.15 14063.05c-18.59,-703.71 777.4,-950.67 1234.15,-487.95 22.56,22.58 23.24,58.43 1.34,81.65l-13.29 14.6c-26.55,27.89 -71.04,28.55 -97.59,0.68 -360.49,-374.44 -988.51,-156.69 -973.91,387.05 14.6,543.71 653.26,728.27 993.16,334.6 25.24,-29.23 69.7,-31.2 97.59,-4.65l13.94 13.93c23.24,21.92 24.56,57.77 3.31,81.67 -431.51,486.62 -1239.46,282.81 -1258.71,-421.58z"/>
   <path class="fil3" d="M25618.69 14181.89c-23.9,0.66 -43.15,20.59 -42.47,44.49l3.31 448.77c0.66,36.53 -29.21,67.05 -66.39,67.73l-23.22 0c-32.54,0 -59.09,-25.89 -58.43,-58.43l-5.97 -1279.96c0,-20.59 14.6,-39.18 35.17,-43.15 32.54,-5.98 159.34,-7.3 381.74,-3.99 282.81,3.31 478.66,93.6 501.9,383.06 34.51,442.82 -346.55,432.19 -725.63,441.49zm-44.47 -647.95l0 450.11c0,25.89 20.57,46.48 46.46,46.48l285.48 0c162.65,0 294.76,-114.19 294.76,-254.94l0 -33.2c0,-140.75 -132.11,-254.94 -294.76,-254.94l-285.48 0c-25.89,0 -46.46,20.59 -46.46,46.48z"/>
   <path class="fil3" d="M27016.83 14402.96l3.33 -3.31c35.19,-29.21 88.3,-21.25 112.2,17.93 109.54,175.92 270.2,232.36 483.3,169.95 73.04,-21.25 121.49,-61.74 144.74,-120.84 207.12,-523.14 -834.52,-178.59 -735.59,-810.6 60.41,-389.04 601.47,-389.04 831.19,-141.4 29.87,32.52 37.83,79.66 19.25,120.16l-1.34 2.65c-17.92,38.5 -67.71,47.8 -98.25,18.59 -209.13,-201.15 -390.36,-231.04 -545.05,-90.29 -73.04,67.05 -83.65,177.93 -24.56,258.25 20.57,27.23 60.41,49.79 119.5,67.73 239,70.36 572.92,156.01 603.46,399.65 31.86,254.26 -83.65,401.65 -345.89,441.49 -229.02,35.17 -420.9,-36.53 -575.57,-214.44 -29.88,-34.53 -25.89,-86.3 9.28,-115.53z"/>
   <path class="fil3" d="M28823.08 14686.31c0.19,40.63 -32.33,73.17 -72.9,73.17l-9.3 0c-40.42,0 -72.96,-32.54 -73.15,-72.9l-2.26 -1273.34c-0.21,-40.63 32.33,-73.15 72.89,-73.15l9.3 0c40.44,0 72.96,32.52 73.17,72.89l2.26 1273.34z"/>
   <path class="fil3" d="M32865.67 14049.11c0,390.38 -316.02,706.38 -706.38,706.38 -390.36,0 -706.36,-316.01 -706.36,-706.38 0,-390.36 316.01,-706.36 706.36,-706.36 390.36,0 706.38,316.01 706.38,706.36zm-138.75 -5.97c0,-310.7 -252.28,-562.98 -562.98,-562.98 -310.7,0 -562.98,252.28 -562.98,562.98 0,310.7 252.28,562.96 562.98,562.96 310.7,0 562.98,-252.27 562.98,-562.96z"/>
   <path class="fil3" d="M34350.77 14726.94l-763.46 0c-12.63,0 -22.58,-9.96 -22.58,-22.56l0 -1324.47c0,-12.61 9.96,-22.56 22.58,-22.56l108.21 0c12.61,0 22.56,9.96 22.56,22.56l0 1208.28c0,12.61 9.96,22.56 22.58,22.56l610.1 0c12.61,0 22.56,9.97 22.56,22.58l0 71.04c0,12.61 -9.96,22.56 -22.56,22.56z"/>
   <path class="fil3" d="M39456.7 13338.75c39.18,0 69.05,22.58 89.63,68.39 191.2,424.21 363.8,847.79 518.5,1270.66 12.61,34.53 -13.29,71.04 -49.79,71.04l-18.59 0c-31.86,0 -61.07,-18.59 -73.69,-47.8l-129.45 -290.77c-9.3,-21.25 -29.87,-34.53 -53.11,-33.87 -95.6,0.68 -188.55,1.34 -280.16,1.34 -91.63,0.66 -185.23,0.66 -280.16,0 -23.24,0 -43.83,13.27 -53.13,34.51l-127.46 291.45c-13.29,29.23 -41.82,47.8 -73.69,48.48l-18.59 0c-36.51,0 -62.4,-36.53 -50.45,-71.04 152.04,-423.55 322.65,-848.44 511.85,-1273.99 19.93,-45.15 49.79,-68.39 88.3,-68.39zm-258.91 868.37c-5.31,13.93 4.65,28.53 19.25,28.53l487.95 -1.32c14.6,0 24.58,-14.6 19.25,-27.89l-244.96 -616.07c-7.3,-17.28 -31.86,-17.28 -38.5,0l-242.99 616.75z"/>
   <path class="fil3" d="M46591.49 14206.45l319.99 470.7c19.91,29.21 -3.99,69.05 -39.18,65.06l-40.5 -3.97c-41.82,-3.99 -79,-26.55 -102.9,-61.09l-331.27 -488.61c-7.3,-11.29 -19.93,-18.59 -33.2,-19.93l-205.14 -20.57c-27.23,-2.65 -50.45,17.92 -50.45,45.15l0 499.9c0,31.2 -25.24,56.42 -55.78,56.42l-49.78 0c-26.57,0 -47.8,-21.23 -47.8,-47.8l0 -1317.8c0,-21.91 17.92,-39.84 39.82,-40.5 201.15,-3.31 365.14,-0.66 493.28,9.3 454.76,34.51 554.34,630.03 124.15,788.7 -26.57,9.96 -36.53,41.83 -21.25,65.06zm-477.34 -701.06l-3.99 508.54c0,7.96 6.64,14.6 14.6,14.6l327.3 1.99c152.7,1.32 277.5,-108.89 278.84,-245.64l0 -42.49c1.34,-136.76 -122.15,-248.3 -274.85,-249.61l-327.3 -1.99c-7.96,0 -14.6,6.64 -14.6,14.6z"/>
   <path class="fil3" d="M47780.5 14225.04l0 452.76c0,37.19 -30.54,67.73 -67.71,67.73l-23.9 0c-32.54,0 -59.09,-26.55 -58.43,-59.09l5.33 -1291.91c0,-21.25 15.26,-39.18 35.85,-43.15 32.52,-5.98 161.31,-6.64 385.05,-1.34 285.46,5.97 482.65,98.91 503.21,391.04 31.2,447.45 -353.17,433.51 -735.57,439.48 -24.58,0.68 -43.83,19.93 -43.83,44.49zm0.66 -711.01l-3.97 492.6c0,14.6 11.95,27.21 26.55,27.21l333.26 3.31c148.72,1.34 270.2,-104.88 271.54,-237l0 -69.05c1.34,-132.11 -118.16,-239.66 -266.21,-240.97l-333.28 -3.33c-15.26,0 -27.89,11.95 -27.89,27.23z"/>
   <path class="fil3" d="M50400.18 14557.65c-11.95,12.61 -2.65,33.85 15.28,33.85l557 0c31.86,0 57.75,25.89 57.75,57.1l0 22.58c0,32.52 -26.55,58.41 -59.09,58.41l-765.45 0c-62.4,0 -94.94,-74.35 -52.45,-120.16 391.69,-416.25 590.85,-628.7 597.5,-637.34 323.98,-394.35 -260.24,-705.05 -474.01,-290.11 -13.94,27.21 -45.82,40.5 -75.69,31.2 -29.21,-9.96 -47.14,-39.18 -41.83,-69.7 11.29,-69.7 43.17,-127.48 95.6,-173.28 448.13,-395.01 1016.42,171.29 592.87,615.43 -150.72,157.34 -300.08,314.67 -447.47,472.01z"/>
   <path class="fil3" d="M52422.38 14390.35c-21.91,1.34 -39.16,19.25 -40.5,41.16l-11.95 256.93c-1.32,35.19 -30.52,62.4 -66.37,62.4l-4.65 0c-35.19,-1.34 -63.08,-31.2 -63.08,-67.05l3.33 -242.31c0.66,-23.24 -18.59,-42.49 -41.83,-42.49l-573.6 -1.34c-50.45,-0.66 -79.66,-57.1 -51.11,-98.25 207.14,-298.75 387.7,-568.29 542.39,-808.61 46.46,-71.04 100.91,-120.84 164.65,-148.71 49.12,-21.25 103.56,14.6 103.56,68.37l-2.65 809.28c0,27.87 23.24,51.11 51.11,51.11l114.19 0c29.88,0 54.44,23.9 55.1,53.78 1.34,29.87 -21.91,55.76 -51.79,57.75l-126.8 7.96zm-188.53 -806.61c0,-13.29 -17.93,-18.59 -25.24,-6.64l-443.48 666.54c-2.65,4.65 0,11.29 5.33,11.29l424.87 3.31c17.93,0 33.2,-14.6 33.2,-33.2l5.33 -641.31z"/>
   <path class="fil3" d="M54839.72 13327.46c270.07,-0.66 489.82,319.34 491.13,715.94 1.34,396.08 -216.42,718.73 -486.09,719.39 -270.07,0.66 -489.82,-319.34 -491.15,-715.94 -1.32,-396.06 216.43,-718.71 486.11,-719.39zm1.52 149.38c-180.25,0 -325.64,256.91 -324.96,572.86 0.66,316.08 146.71,571.68 326.96,571.68 180.25,0 325.64,-256.93 324.96,-572.86 -0.66,-316.08 -146.71,-571.68 -326.96,-571.68z"/>
   <path class="fil3" d="M56758.22 14387.69c-21.25,1.34 -38.52,18.59 -39.84,40.5l-10.63 254.26c-1.98,34.53 -30.52,61.74 -65.72,61.74l-4.65 0c-35.19,-0.66 -62.4,-29.87 -62.4,-65.72l1.99 -239.68c0,-23.22 -18.59,-41.82 -41.83,-41.82l-566.95 0.66c-49.79,0 -79,-55.1 -51.11,-96.26 203.15,-296.75 381.06,-564.3 533.1,-802.64 45.15,-70.36 98.91,-120.16 161.97,-148.05 48.48,-21.25 102.92,13.94 102.92,67.05l1.32 801.32c0,27.21 22.58,49.78 50.45,49.78l112.86 0c29.23,0 53.78,23.24 55.1,53.13 0.68,29.21 -21.91,54.42 -51.11,56.42l-125.46 9.3zm-179.93 -772.76c0,-13.29 -17.26,-17.93 -24.56,-6.64l-422.24 646.63c-2.65,4.63 0,10.61 5.33,10.61l409.61 0c17.92,0 31.86,-14.6 31.86,-32.54l0 -618.07z"/>
   <path class="fil3" d="M58267.23 14427.53l-11.29 253.6c-1.32,34.51 -29.87,61.74 -65.06,61.74l-4.65 0c-35.19,-1.34 -63.06,-30.54 -62.4,-65.73l2.65 -239c0,-23.24 -18.59,-41.82 -41.82,-41.82l-565.64 0c-49.14,0 -78.34,-55.78 -50.45,-96.28 203.15,-295.42 380.4,-561.65 532.44,-799.31 45.13,-70.36 98.91,-119.5 161.97,-147.39 48.48,-21.25 102.24,13.94 102.24,67.05l0 798.67c0,27.21 22.58,49.78 50.45,49.78l112.2 0c29.21,0 53.78,23.24 55.1,53.13 0.68,29.21 -21.91,54.42 -51.11,56.42l-124.81 8.64c-21.92,1.32 -38.5,18.59 -39.84,40.5zm-146.05 -806.63c0.66,-12.61 -16.6,-17.92 -23.9,-6.64l-425.55 626.04c-2.65,4.65 0,10.63 5.31,10.63l401.65 7.3c17.26,0 31.2,-13.94 31.86,-31.2l10.63 -606.13z"/>
   <path class="fil3" d="M60804.6 13838.66c348.52,-2.65 513.85,166.64 496.57,507.88 -10.61,211.77 -118.16,339.9 -323.31,385.71 -474.01,106.23 -707.04,-359.82 -487.95,-736.91 108.21,-185.89 239.66,-385.71 395.01,-600.15 23.9,-33.2 64.4,-49.14 104.24,-42.49l2.65 0.66c31.86,5.98 48.46,41.83 31.2,69.05l-238.34 381.08c-9.3,15.26 1.99,35.17 19.93,35.17zm364.46 453.44c0,-172.61 -140.07,-312.69 -312.69,-312.69 -172.61,0 -312.69,140.09 -312.69,312.69 0,172.61 140.09,312.69 312.69,312.69 172.62,0 312.69,-140.09 312.69,-312.69z"/>
   <path class="fil3" d="M59017.42 13360l873.66 0c14.62,0 25.24,15.26 19.25,29.88l-568.27 1330.41c-3.33,7.3 -10.63,12.63 -19.25,12.63l-140.09 0c-15.26,0 -25.89,-15.94 -19.25,-30.54l551.69 -1184.38c6.64,-14.6 -3.99,-30.54 -19.25,-30.54l-678.49 0c-11.95,0 -21.25,-9.28 -21.25,-21.23l0 -84.99c0,-11.95 9.3,-21.25 21.25,-21.25z"/>
   <path class="fil1" d="M19822.31 13856.59c0,134.1 -108.21,242.31 -242.31,242.31 -134.1,0 -242.33,-108.21 -242.33,-242.31 0,-134.1 108.23,-242.33 242.33,-242.33 134.1,0 242.31,108.23 242.31,242.33zm-73.02 -6.64c0,-88.96 -71.7,-160.66 -160.67,-160.66 -88.96,0 -160.66,71.7 -160.66,160.66 0,88.96 71.7,160.66 160.66,160.66 88.98,0 160.67,-71.7 160.67,-160.66z"/>
   <path class="fil1" d="M19266.24 13924.83c5.72,13.42 -80.58,64.53 -193.44,115.4 -112.88,50.72 -209.13,81.26 -214.7,68.05 -5.72,-13.34 80.58,-64.47 193.46,-115.32 112.86,-50.72 209.11,-81.26 214.68,-68.12z"/>
  </g>
 </g>
</svg>
